<?xml version="1.0" encoding="UTF-8" standalone="no"?>
<!DOCTYPE svg PUBLIC "-//W3C//DTD SVG 1.1//EN"
 "http://www.w3.org/Graphics/SVG/1.1/DTD/svg11.dtd">
<!-- Generated by graphviz version 2.40.1 (20161225.0304)
 -->
<!-- Title: hunt Pages: 1 -->
<svg width="1871pt" height="656pt"
 viewBox="0.00 0.00 1871.10 655.74" xmlns="http://www.w3.org/2000/svg" xmlns:xlink="http://www.w3.org/1999/xlink">
<g id="graph0" class="graph" transform="scale(1 1) rotate(0) translate(4 651.7351)">
<title>hunt</title>
<polygon fill="#ffffff" stroke="transparent" points="-4,4 -4,-651.7351 1867.0957,-651.7351 1867.0957,4 -4,4"/>
<text text-anchor="start" x="564.5479" y="-624.7351" font-family="Times,serif" font-style="italic" font-size="25.00" fill="#000000">Shadow of Mordor: Lord of the Hunt</text>
<text text-anchor="start" x="937.5479" y="-624.7351" font-family="Times,serif" font-size="25.00" fill="#000000"> DLC mission/unlock tree (verbose)</text>
<text text-anchor="start" x="726.5479" y="-599.7351" font-family="Times,serif" baseline-shift="super" font-size="25.00" fill="#000000">http://github.com/apocalyptech/mordormissions/</text>
<text text-anchor="start" x="624.0479" y="-574.7351" font-family="Times,serif" baseline-shift="super" font-size="25.00" fill="#000000">CC0 1.0 Universal &#45; https://creativecommons.org/publicdomain/zero/1.0/</text>
<g id="clust5" class="cluster">
<title>cluster_key</title>
<polygon fill="none" stroke="#000000" points="8,-222.9117 8,-556.7351 198,-556.7351 198,-222.9117 8,-222.9117"/>
<text text-anchor="middle" x="103" y="-532.7351" font-family="Times,serif" font-size="25.00" fill="#000000">Key</text>
</g>
<!-- label_main -->
<g id="node1" class="node">
<title>label_main</title>
<ellipse fill="#ff3030" stroke="#000000" cx="103" cy="-494.7351" rx="34.394" ry="18"/>
<text text-anchor="middle" x="103" y="-491.0351" font-family="Times,serif" font-size="14.00" fill="#000000">Torvin</text>
</g>
<!-- label_warchief -->
<g id="node7" class="node">
<title>label_warchief</title>
<ellipse fill="#009acd" stroke="#000000" cx="103" cy="-415.2792" rx="78.7863" ry="18"/>
<text text-anchor="middle" x="103" y="-411.5792" font-family="Times,serif" font-size="14.00" fill="#000000">Warchief Missions</text>
</g>
<!-- label_main&#45;&gt;label_warchief -->
<!-- initial -->
<g id="node2" class="node">
<title>initial</title>
<ellipse fill="#ff3030" stroke="#000000" cx="1366" cy="-494.7351" rx="63.0888" ry="18"/>
<text text-anchor="start" x="1325.5" y="-492.0351" font-family="Times,serif" font-style="italic" font-size="14.00" fill="#000000">Initial Mission</text>
</g>
<!-- swift -->
<g id="node3" class="node">
<title>swift</title>
<ellipse fill="#ff3030" stroke="#000000" cx="1277" cy="-415.2792" rx="63.8893" ry="18"/>
<text text-anchor="middle" x="1277" y="-411.5792" font-family="Times,serif" font-size="14.00" fill="#000000">Swift Tracking</text>
</g>
<!-- initial&#45;&gt;swift -->
<g id="edge4" class="edge">
<title>initial&#45;&gt;swift</title>
<path fill="none" stroke="#000000" d="M1346.6883,-477.4943C1334.2092,-466.3535 1317.7896,-451.6947 1304.0231,-439.4044"/>
<polygon fill="#000000" stroke="#000000" points="1306.0647,-436.5352 1296.274,-432.4863 1301.4028,-441.757 1306.0647,-436.5352"/>
</g>
<!-- aggression -->
<g id="node4" class="node">
<title>aggression</title>
<ellipse fill="#ff3030" stroke="#000000" cx="664" cy="-415.2792" rx="98.5829" ry="18"/>
<text text-anchor="middle" x="664" y="-411.5792" font-family="Times,serif" font-size="14.00" fill="#000000">Unwarranted Aggression</text>
</g>
<!-- initial&#45;&gt;aggression -->
<g id="edge5" class="edge">
<title>initial&#45;&gt;aggression</title>
<path fill="none" stroke="#000000" d="M1307.3553,-488.0974C1185.8739,-474.3475 905.7938,-442.6466 758.485,-425.9735"/>
<polygon fill="#000000" stroke="#000000" points="758.4425,-422.4464 748.1122,-424.7995 757.6551,-429.402 758.4425,-422.4464"/>
</g>
<!-- matrons -->
<g id="node5" class="node">
<title>matrons</title>
<ellipse fill="#ff3030" stroke="#000000" cx="1456" cy="-415.2792" rx="65.7887" ry="18"/>
<text text-anchor="middle" x="1456" y="-411.5792" font-family="Times,serif" font-size="14.00" fill="#000000">Matrons Rising</text>
</g>
<!-- initial&#45;&gt;matrons -->
<g id="edge7" class="edge">
<title>initial&#45;&gt;matrons</title>
<path fill="none" stroke="#000000" d="M1385.5287,-477.4943C1398.148,-466.3535 1414.7521,-451.6947 1428.6733,-439.4044"/>
<polygon fill="#000000" stroke="#000000" points="1431.3293,-441.7284 1436.5095,-432.4863 1426.6965,-436.4808 1431.3293,-441.7284"/>
</g>
<!-- call -->
<g id="node8" class="node">
<title>call</title>
<ellipse fill="#009acd" stroke="#000000" cx="1644" cy="-415.2792" rx="104.8038" ry="25.4118"/>
<text text-anchor="start" x="1588.5" y="-419.0792" font-family="Times,serif" font-size="14.00" fill="#000000">Call of the Caragath</text>
<text text-anchor="start" x="1578" y="-405.0792" font-family="Times,serif" font-style="italic" font-size="14.00" fill="#000000">(Tûmhorn Beast Tamer)</text>
</g>
<!-- initial&#45;&gt;call -->
<g id="edge6" class="edge">
<title>initial&#45;&gt;call</title>
<path fill="none" stroke="#000000" d="M1410.6655,-481.9691C1452.538,-470.0014 1516.0353,-451.8531 1566.2242,-437.5085"/>
<polygon fill="#000000" stroke="#000000" points="1567.421,-440.8067 1576.0741,-434.6933 1565.4973,-434.0762 1567.421,-440.8067"/>
</g>
<!-- from_hunter -->
<g id="node18" class="node">
<title>from_hunter</title>
<ellipse fill="#ffffff" stroke="#000000" cx="377" cy="-415.2792" rx="94.7833" ry="18"/>
<text text-anchor="middle" x="377" y="-411.5792" font-family="Times,serif" font-size="14.00" fill="#000000">From Hunter to Hunted</text>
</g>
<!-- initial&#45;&gt;from_hunter -->
<g id="edge22" class="edge">
<title>initial&#45;&gt;from_hunter</title>
<path fill="none" stroke="#000000" d="M1303.3633,-492.1556C1167.1518,-486.196 833.9007,-469.7178 556,-440.7351 524.5851,-437.4588 490.2108,-432.8251 460.0572,-428.4073"/>
<polygon fill="#000000" stroke="#000000" points="460.408,-424.9212 450.0034,-426.9197 459.3833,-431.8458 460.408,-424.9212"/>
</g>
<!-- caragath -->
<g id="node20" class="node">
<title>caragath</title>
<ellipse fill="#00ff00" stroke="#000000" cx="1815" cy="-415.2792" rx="48.1917" ry="18"/>
<text text-anchor="start" x="1786" y="-412.5792" font-family="Times,serif" font-style="italic" font-size="14.00" fill="#000000">Caragaths</text>
</g>
<!-- initial&#45;&gt;caragath -->
<g id="edge16" class="edge">
<title>initial&#45;&gt;caragath</title>
<path fill="none" stroke="#000000" d="M1428.2225,-491.5993C1506.4887,-486.4259 1644.3904,-473.2141 1758,-440.7351 1764.2913,-438.9365 1770.7855,-436.5704 1777.0369,-434.0045"/>
<polygon fill="#000000" stroke="#000000" points="1778.8136,-437.0491 1786.5968,-429.8608 1776.0297,-430.6265 1778.8136,-437.0491"/>
</g>
<!-- blasted -->
<g id="node10" class="node">
<title>blasted</title>
<ellipse fill="#009acd" stroke="#000000" cx="1277" cy="-328.3675" rx="89.6056" ry="25.4118"/>
<text text-anchor="start" x="1236" y="-332.1675" font-family="Times,serif" font-size="14.00" fill="#000000">Blasted Uruks!</text>
<text text-anchor="start" x="1221.5" y="-318.1675" font-family="Times,serif" font-style="italic" font-size="14.00" fill="#000000">(Ashgarn Smuggler)</text>
</g>
<!-- swift&#45;&gt;blasted -->
<g id="edge8" class="edge">
<title>swift&#45;&gt;blasted</title>
<path fill="none" stroke="#000000" d="M1277,-397.2711C1277,-387.6781 1277,-375.5306 1277,-364.116"/>
<polygon fill="#000000" stroke="#000000" points="1280.5001,-363.9335 1277,-353.9335 1273.5001,-363.9336 1280.5001,-363.9335"/>
</g>
<!-- swiftness -->
<g id="node21" class="node">
<title>swiftness</title>
<ellipse fill="#00ff00" stroke="#000000" cx="1090" cy="-328.3675" rx="79.0865" ry="18"/>
<text text-anchor="middle" x="1090" y="-324.6675" font-family="Times,serif" font-size="14.00" fill="#000000">Caragath Swiftness</text>
</g>
<!-- swift&#45;&gt;swiftness -->
<g id="edge17" class="edge">
<title>swift&#45;&gt;swiftness</title>
<path fill="none" stroke="#000000" d="M1243.5681,-399.7412C1213.0318,-385.5488 1167.6719,-364.467 1134.1616,-348.8925"/>
<polygon fill="#000000" stroke="#000000" points="1135.59,-345.6968 1125.0464,-344.656 1132.6396,-352.0447 1135.59,-345.6968"/>
</g>
<!-- rest -->
<g id="node9" class="node">
<title>rest</title>
<ellipse fill="#009acd" stroke="#000000" cx="881" cy="-328.3675" rx="111.9462" ry="25.4118"/>
<text text-anchor="start" x="810" y="-332.1675" font-family="Times,serif" font-size="14.00" fill="#000000">No Rest for the Wretched</text>
<text text-anchor="start" x="819.5" y="-318.1675" font-family="Times,serif" font-style="italic" font-size="14.00" fill="#000000">(Zûgor Beast Butcher)</text>
</g>
<!-- aggression&#45;&gt;rest -->
<g id="edge10" class="edge">
<title>aggression&#45;&gt;rest</title>
<path fill="none" stroke="#000000" d="M705.0712,-398.8296C736.4276,-386.2709 780.2323,-368.7265 816.2862,-354.2864"/>
<polygon fill="#000000" stroke="#000000" points="817.7698,-357.4625 825.7516,-350.4953 815.1672,-350.9643 817.7698,-357.4625"/>
</g>
<!-- belching -->
<g id="node14" class="node">
<title>belching</title>
<ellipse fill="#ffffff" stroke="#000000" cx="664" cy="-328.3675" rx="87.9851" ry="18"/>
<text text-anchor="middle" x="664" y="-324.6675" font-family="Times,serif" font-size="14.00" fill="#000000">Belching Monstrosity</text>
</g>
<!-- aggression&#45;&gt;belching -->
<g id="edge23" class="edge">
<title>aggression&#45;&gt;belching</title>
<path fill="none" stroke="#000000" d="M664,-397.2711C664,-385.5797 664,-370.094 664,-356.7651"/>
<polygon fill="#000000" stroke="#000000" points="667.5001,-356.6516 664,-346.6516 660.5001,-356.6517 667.5001,-356.6516"/>
</g>
<!-- heaving -->
<g id="node17" class="node">
<title>heaving</title>
<ellipse fill="#ffffff" stroke="#000000" cx="323" cy="-328.3675" rx="76.8869" ry="18"/>
<text text-anchor="middle" x="323" y="-324.6675" font-family="Times,serif" font-size="14.00" fill="#000000">Heaving Rampage</text>
</g>
<!-- aggression&#45;&gt;heaving -->
<g id="edge24" class="edge">
<title>aggression&#45;&gt;heaving</title>
<path fill="none" stroke="#000000" d="M601.9415,-401.2608C550.1664,-389.341 474.5342,-371.407 409,-353.8234 399.4127,-351.251 389.2672,-348.3812 379.4361,-345.5216"/>
<polygon fill="#000000" stroke="#000000" points="380.323,-342.1343 369.7421,-342.6768 378.3519,-348.8511 380.323,-342.1343"/>
</g>
<!-- wretched -->
<g id="node23" class="node">
<title>wretched</title>
<ellipse fill="#00ff00" stroke="#000000" cx="488" cy="-328.3675" rx="70.3881" ry="18"/>
<text text-anchor="start" x="442" y="-325.6675" font-family="Times,serif" font-style="italic" font-size="14.00" fill="#000000">Wretched Graug</text>
</g>
<!-- aggression&#45;&gt;wretched -->
<g id="edge18" class="edge">
<title>aggression&#45;&gt;wretched</title>
<path fill="none" stroke="#000000" d="M629.6476,-398.3155C600.9994,-384.1685 560.0847,-363.9641 529.5879,-348.9043"/>
<polygon fill="#000000" stroke="#000000" points="530.9991,-345.6977 520.483,-344.4082 527.8996,-351.9742 530.9991,-345.6977"/>
</g>
<!-- stronghold -->
<g id="node12" class="node">
<title>stronghold</title>
<ellipse fill="#009acd" stroke="#000000" cx="1489" cy="-328.3675" rx="104.8038" ry="25.4118"/>
<text text-anchor="start" x="1433" y="-332.1675" font-family="Times,serif" font-size="14.00" fill="#000000">Stronghold Uprising</text>
<text text-anchor="start" x="1423" y="-318.1675" font-family="Times,serif" font-style="italic" font-size="14.00" fill="#000000">(Ûgakûga Graug Rider)</text>
</g>
<!-- matrons&#45;&gt;stronghold -->
<g id="edge9" class="edge">
<title>matrons&#45;&gt;stronghold</title>
<path fill="none" stroke="#000000" d="M1462.8376,-397.2711C1466.5544,-387.4823 1471.2811,-375.0337 1475.6915,-363.4181"/>
<polygon fill="#000000" stroke="#000000" points="1479.015,-364.5247 1479.2927,-353.9335 1472.4709,-362.0399 1479.015,-364.5247"/>
</g>
<!-- bait -->
<g id="node22" class="node">
<title>bait</title>
<ellipse fill="#00ff00" stroke="#000000" cx="1657" cy="-328.3675" rx="45.4919" ry="18"/>
<text text-anchor="middle" x="1657" y="-324.6675" font-family="Times,serif" font-size="14.00" fill="#000000">Ghûl Bait</text>
</g>
<!-- matrons&#45;&gt;bait -->
<g id="edge19" class="edge">
<title>matrons&#45;&gt;bait</title>
<path fill="none" stroke="#000000" d="M1493.0463,-400.325C1522.8884,-388.1509 1565.8428,-370.3387 1603,-353.8234 1608.0907,-351.5607 1613.4242,-349.126 1618.6742,-346.6912"/>
<polygon fill="#000000" stroke="#000000" points="1620.3885,-349.7534 1627.9633,-342.3458 1617.4224,-343.4128 1620.3885,-349.7534"/>
</g>
<!-- oath -->
<g id="node6" class="node">
<title>oath</title>
<ellipse fill="#ff3030" stroke="#000000" cx="1277" cy="-248.9117" rx="74.187" ry="18"/>
<text text-anchor="middle" x="1277" y="-245.2117" font-family="Times,serif" font-size="14.00" fill="#000000">Hypocritical Oath</text>
</g>
<!-- homewrecker -->
<g id="node11" class="node">
<title>homewrecker</title>
<ellipse fill="#009acd" stroke="#000000" cx="1372" cy="-169.4558" rx="103.4757" ry="25.4118"/>
<text text-anchor="start" x="1333" y="-173.2558" font-family="Times,serif" font-size="14.00" fill="#000000">Homewrecker</text>
<text text-anchor="start" x="1307" y="-159.2558" font-family="Times,serif" font-style="italic" font-size="14.00" fill="#000000">(Shágflak Ghûl Keeper)</text>
</g>
<!-- oath&#45;&gt;homewrecker -->
<g id="edge15" class="edge">
<title>oath&#45;&gt;homewrecker</title>
<path fill="none" stroke="#000000" d="M1298.0836,-231.2779C1308.8455,-222.2769 1322.2601,-211.0572 1334.6961,-200.656"/>
<polygon fill="#000000" stroke="#000000" points="1337.264,-203.0711 1342.6893,-193.9707 1332.7731,-197.7015 1337.264,-203.0711"/>
</g>
<!-- feast -->
<g id="node16" class="node">
<title>feast</title>
<ellipse fill="#ffffff" stroke="#000000" cx="942" cy="-169.4558" rx="69.5877" ry="18"/>
<text text-anchor="middle" x="942" y="-165.7558" font-family="Times,serif" font-size="14.00" fill="#000000">A Feast of Flesh</text>
</g>
<!-- oath&#45;&gt;feast -->
<g id="edge25" class="edge">
<title>oath&#45;&gt;feast</title>
<path fill="none" stroke="#000000" d="M1223.9183,-236.3217C1163.9379,-222.0954 1066.4619,-198.9759 1003.2917,-183.9931"/>
<polygon fill="#000000" stroke="#000000" points="1003.9966,-180.5633 993.4588,-181.6609 1002.3811,-187.3743 1003.9966,-180.5633"/>
</g>
<!-- dominate_ghuls -->
<g id="node25" class="node">
<title>dominate_ghuls</title>
<ellipse fill="#00ff00" stroke="#000000" cx="1182" cy="-169.4558" rx="68.7879" ry="18"/>
<text text-anchor="start" x="1137" y="-166.7558" font-family="Times,serif" font-style="italic" font-size="14.00" fill="#000000">Dominate Ghûls</text>
</g>
<!-- oath&#45;&gt;dominate_ghuls -->
<g id="edge20" class="edge">
<title>oath&#45;&gt;dominate_ghuls</title>
<path fill="none" stroke="#000000" d="M1255.9164,-231.2779C1242.5409,-220.0909 1225.0678,-205.4768 1210.4686,-193.2663"/>
<polygon fill="#000000" stroke="#000000" points="1212.614,-190.4979 1202.6978,-186.767 1208.123,-195.8674 1212.614,-190.4979"/>
</g>
<!-- label_legends -->
<g id="node13" class="node">
<title>label_legends</title>
<ellipse fill="#ffffff" stroke="#000000" cx="103" cy="-328.3675" rx="87.1846" ry="18"/>
<text text-anchor="middle" x="103" y="-324.6675" font-family="Times,serif" font-size="14.00" fill="#000000">Legend of the Hunter</text>
</g>
<!-- label_warchief&#45;&gt;label_legends -->
<!-- call&#45;&gt;oath -->
<g id="edge11" class="edge">
<title>call&#45;&gt;oath</title>
<path fill="none" stroke="#000000" d="M1680.5313,-391.3177C1692.5668,-381.3112 1704.5195,-368.5613 1711,-353.8234 1720.1079,-333.11 1725.9797,-319.8707 1711,-302.9117 1688.1663,-277.0609 1479.1016,-260.7023 1359.676,-253.3845"/>
<polygon fill="#000000" stroke="#000000" points="1359.662,-249.8773 1349.4691,-252.7676 1359.2397,-256.8646 1359.662,-249.8773"/>
</g>
<!-- rest&#45;&gt;oath -->
<g id="edge13" class="edge">
<title>rest&#45;&gt;oath</title>
<path fill="none" stroke="#000000" d="M962.9796,-310.965C976.0263,-308.2404 989.3783,-305.4785 1002,-302.9117 1072.3576,-288.6037 1152.9769,-272.8482 1208.6501,-262.0681"/>
<polygon fill="#000000" stroke="#000000" points="1209.594,-265.4505 1218.7471,-260.1146 1208.2643,-258.5779 1209.594,-265.4505"/>
</g>
<!-- blasted&#45;&gt;oath -->
<g id="edge14" class="edge">
<title>blasted&#45;&gt;oath</title>
<path fill="none" stroke="#000000" d="M1277,-302.7898C1277,-294.6239 1277,-285.5405 1277,-277.1941"/>
<polygon fill="#000000" stroke="#000000" points="1280.5001,-277.1404 1277,-267.1405 1273.5001,-277.1405 1280.5001,-277.1404"/>
</g>
<!-- story_end -->
<g id="node26" class="node">
<title>story_end</title>
<ellipse fill="#00ff00" stroke="#000000" cx="1372" cy="-90" rx="51.9908" ry="18"/>
<text text-anchor="start" x="1340" y="-87.3" font-family="Times,serif" font-style="italic" font-size="14.00" fill="#000000">(Story End)</text>
</g>
<!-- homewrecker&#45;&gt;story_end -->
<g id="edge21" class="edge">
<title>homewrecker&#45;&gt;story_end</title>
<path fill="none" stroke="#000000" d="M1372,-143.8782C1372,-135.7122 1372,-126.6289 1372,-118.2824"/>
<polygon fill="#000000" stroke="#000000" points="1375.5001,-118.2287 1372,-108.2288 1368.5001,-118.2288 1375.5001,-118.2287"/>
</g>
<!-- stronghold&#45;&gt;oath -->
<g id="edge12" class="edge">
<title>stronghold&#45;&gt;oath</title>
<path fill="none" stroke="#000000" d="M1431.909,-306.9703C1399.1222,-294.6821 1358.3396,-279.3971 1326.8506,-267.5953"/>
<polygon fill="#000000" stroke="#000000" points="1327.9879,-264.2838 1317.3956,-264.0516 1325.5312,-270.8386 1327.9879,-264.2838"/>
</g>
<!-- label_unlocks -->
<g id="node19" class="node">
<title>label_unlocks</title>
<ellipse fill="#00ff00" stroke="#000000" cx="103" cy="-248.9117" rx="40.0939" ry="18"/>
<text text-anchor="middle" x="103" y="-245.2117" font-family="Times,serif" font-size="14.00" fill="#000000">Unlocks</text>
</g>
<!-- label_legends&#45;&gt;label_unlocks -->
<!-- master -->
<g id="node15" class="node">
<title>master</title>
<ellipse fill="#ffffff" stroke="#000000" cx="494" cy="-90" rx="57.6901" ry="18"/>
<text text-anchor="middle" x="494" y="-86.3" font-family="Times,serif" font-size="14.00" fill="#000000">Beast Master</text>
</g>
<!-- belching&#45;&gt;master -->
<g id="edge27" class="edge">
<title>belching&#45;&gt;master</title>
<path fill="none" stroke="#000000" d="M651.2224,-310.4512C621.4292,-268.6763 547.2549,-164.6719 512.5082,-115.9515"/>
<polygon fill="#000000" stroke="#000000" points="515.35,-113.9084 506.694,-107.799 509.6509,-117.9729 515.35,-113.9084"/>
</g>
<!-- blazing -->
<g id="node24" class="node">
<title>blazing</title>
<ellipse fill="#00ff00" stroke="#000000" cx="494" cy="-18" rx="59.5901" ry="18"/>
<text text-anchor="middle" x="494" y="-14.3" font-family="Times,serif" font-size="14.00" fill="#000000">Blazing Steed</text>
</g>
<!-- master&#45;&gt;blazing -->
<g id="edge30" class="edge">
<title>master&#45;&gt;blazing</title>
<path fill="none" stroke="#000000" d="M494,-71.8314C494,-64.131 494,-54.9743 494,-46.4166"/>
<polygon fill="#000000" stroke="#000000" points="497.5001,-46.4132 494,-36.4133 490.5001,-46.4133 497.5001,-46.4132"/>
</g>
<!-- feast&#45;&gt;master -->
<g id="edge28" class="edge">
<title>feast&#45;&gt;master</title>
<path fill="none" stroke="#000000" d="M884.349,-159.231C799.3302,-144.1524 641.0671,-116.0833 554.4646,-100.7238"/>
<polygon fill="#000000" stroke="#000000" points="554.9814,-97.2609 544.5238,-98.9607 553.7589,-104.1534 554.9814,-97.2609"/>
</g>
<!-- heaving&#45;&gt;master -->
<g id="edge29" class="edge">
<title>heaving&#45;&gt;master</title>
<path fill="none" stroke="#000000" d="M335.8528,-310.4512C365.8213,-268.6763 440.4319,-164.6719 475.383,-115.9515"/>
<polygon fill="#000000" stroke="#000000" points="478.2462,-117.9647 481.2313,-107.799 472.5584,-113.8843 478.2462,-117.9647"/>
</g>
<!-- from_hunter&#45;&gt;master -->
<g id="edge26" class="edge">
<title>from_hunter&#45;&gt;master</title>
<path fill="none" stroke="#000000" d="M309.7403,-402.5649C282.3437,-393.7212 253.3297,-378.8253 237,-353.8234 224.6266,-334.8788 227.7241,-323.5504 237,-302.9117 280.0384,-207.1517 390.9053,-140.2842 452.0201,-109.3834"/>
<polygon fill="#000000" stroke="#000000" points="453.625,-112.4943 461.0228,-104.9099 450.51,-106.2256 453.625,-112.4943"/>
</g>
</g>
</svg>
