<?xml version="1.0" encoding="UTF-8" standalone="no"?>
<!DOCTYPE svg PUBLIC "-//W3C//DTD SVG 1.1//EN"
 "http://www.w3.org/Graphics/SVG/1.1/DTD/svg11.dtd">
<!-- Generated by graphviz version 2.40.1 (20161225.0304)
 -->
<!-- Title: hunt Pages: 1 -->
<svg width="1531pt" height="641pt"
 viewBox="0.00 0.00 1530.74 640.81" xmlns="http://www.w3.org/2000/svg" xmlns:xlink="http://www.w3.org/1999/xlink">
<g id="graph0" class="graph" transform="scale(1 1) rotate(0) translate(4 636.8133)">
<title>hunt</title>
<polygon fill="#ffffff" stroke="transparent" points="-4,4 -4,-636.8133 1526.7422,-636.8133 1526.7422,4 -4,4"/>
<text text-anchor="start" x="380.3711" y="-609.8133" font-family="Times,serif" font-style="italic" font-size="25.00" fill="#000000">Shadow of Mordor: Lord of the Hunt</text>
<text text-anchor="start" x="753.3711" y="-609.8133" font-family="Times,serif" font-size="25.00" fill="#000000"> DLC mission/unlock tree (condensed)</text>
<text text-anchor="start" x="556.3711" y="-584.8133" font-family="Times,serif" baseline-shift="super" font-size="25.00" fill="#000000">http://github.com/apocalyptech/mordormissions/</text>
<text text-anchor="start" x="453.8711" y="-559.8133" font-family="Times,serif" baseline-shift="super" font-size="25.00" fill="#000000">CC0 1.0 Universal &#45; https://creativecommons.org/publicdomain/zero/1.0/</text>
<g id="clust4" class="cluster">
<title>cluster_key</title>
<polygon fill="none" stroke="#000000" points="8,-279.9899 8,-541.8133 198,-541.8133 198,-279.9899 8,-279.9899"/>
<text text-anchor="middle" x="103" y="-517.8133" font-family="Times,serif" font-size="25.00" fill="#000000">Key</text>
</g>
<!-- label_main -->
<g id="node1" class="node">
<title>label_main</title>
<ellipse fill="#ff3030" stroke="#000000" cx="103" cy="-479.8133" rx="34.394" ry="18"/>
<text text-anchor="middle" x="103" y="-476.1133" font-family="Times,serif" font-size="14.00" fill="#000000">Torvin</text>
</g>
<!-- label_warchief -->
<g id="node7" class="node">
<title>label_warchief</title>
<ellipse fill="#009acd" stroke="#000000" cx="103" cy="-392.9016" rx="78.7863" ry="18"/>
<text text-anchor="middle" x="103" y="-389.2016" font-family="Times,serif" font-size="14.00" fill="#000000">Warchief Missions</text>
</g>
<!-- label_main&#45;&gt;label_warchief -->
<!-- initial -->
<g id="node2" class="node">
<title>initial</title>
<ellipse fill="#ff3030" stroke="#000000" cx="727" cy="-479.8133" rx="97.6615" ry="25.4118"/>
<text text-anchor="start" x="686.5" y="-483.6133" font-family="Times,serif" font-style="italic" font-size="14.00" fill="#000000">Initial Mission</text>
<text text-anchor="start" x="666" y="-469.6133" font-family="Times,serif" font-style="italic" font-size="14.00" fill="#000000">(</text>
<text text-anchor="start" x="671" y="-469.6133" font-family="Times,serif" font-weight="bold" font-style="italic" font-size="14.00" fill="#000000">Unlocks:</text>
<text text-anchor="start" x="722" y="-469.6133" font-family="Times,serif" font-style="italic" font-size="14.00" fill="#000000"> Caragaths)</text>
</g>
<!-- swift -->
<g id="node3" class="node">
<title>swift</title>
<ellipse fill="#ff3030" stroke="#000000" cx="981" cy="-392.9016" rx="131.5437" ry="25.4118"/>
<text text-anchor="start" x="940" y="-396.7016" font-family="Times,serif" font-size="14.00" fill="#000000">Swift Tracking</text>
<text text-anchor="start" x="896" y="-382.7016" font-family="Times,serif" font-style="italic" font-size="14.00" fill="#000000">(</text>
<text text-anchor="start" x="901" y="-382.7016" font-family="Times,serif" font-weight="bold" font-style="italic" font-size="14.00" fill="#000000">Unlocks:</text>
<text text-anchor="start" x="952" y="-382.7016" font-family="Times,serif" font-size="14.00" fill="#000000"> Caragath Swiftness</text>
<text text-anchor="start" x="1061" y="-382.7016" font-family="Times,serif" font-style="italic" font-size="14.00" fill="#000000">)</text>
</g>
<!-- initial&#45;&gt;swift -->
<g id="edge3" class="edge">
<title>initial&#45;&gt;swift</title>
<path fill="none" stroke="#000000" d="M786.2312,-459.546C822.0431,-447.2922 868.0222,-431.5594 906.3131,-418.4574"/>
<polygon fill="#000000" stroke="#000000" points="907.5432,-421.7357 915.8715,-415.1867 905.2769,-415.1127 907.5432,-421.7357"/>
</g>
<!-- aggression -->
<g id="node4" class="node">
<title>aggression</title>
<ellipse fill="#ff3030" stroke="#000000" cx="1253" cy="-392.9016" rx="122.1592" ry="25.4118"/>
<text text-anchor="start" x="1185" y="-396.7016" font-family="Times,serif" font-size="14.00" fill="#000000">Unwarranted Aggression</text>
<text text-anchor="start" x="1174.5" y="-382.7016" font-family="Times,serif" font-style="italic" font-size="14.00" fill="#000000">(</text>
<text text-anchor="start" x="1179.5" y="-382.7016" font-family="Times,serif" font-weight="bold" font-style="italic" font-size="14.00" fill="#000000">Unlocks:</text>
<text text-anchor="start" x="1230.5" y="-382.7016" font-family="Times,serif" font-style="italic" font-size="14.00" fill="#000000"> Wretched Graug</text>
<text text-anchor="start" x="1326.5" y="-382.7016" font-family="Times,serif" font-size="14.00" fill="#000000">)</text>
</g>
<!-- initial&#45;&gt;aggression -->
<g id="edge4" class="edge">
<title>initial&#45;&gt;aggression</title>
<path fill="none" stroke="#000000" d="M812.6811,-467.4314C892.7937,-455.6296 1015.6943,-436.9491 1122,-418.3574 1132.5713,-416.5086 1143.6058,-414.4955 1154.5899,-412.438"/>
<polygon fill="#000000" stroke="#000000" points="1155.4711,-415.8335 1164.6484,-410.5394 1154.1727,-408.955 1155.4711,-415.8335"/>
</g>
<!-- matrons -->
<g id="node5" class="node">
<title>matrons</title>
<ellipse fill="#ff3030" stroke="#000000" cx="509" cy="-392.9016" rx="95.4188" ry="25.4118"/>
<text text-anchor="start" x="466.5" y="-396.7016" font-family="Times,serif" font-size="14.00" fill="#000000">Matrons Rising</text>
<text text-anchor="start" x="449.5" y="-382.7016" font-family="Times,serif" font-style="italic" font-size="14.00" fill="#000000">(</text>
<text text-anchor="start" x="454.5" y="-382.7016" font-family="Times,serif" font-weight="bold" font-style="italic" font-size="14.00" fill="#000000">Unlocks:</text>
<text text-anchor="start" x="505.5" y="-382.7016" font-family="Times,serif" font-size="14.00" fill="#000000"> Ghûl Bait</text>
<text text-anchor="start" x="563.5" y="-382.7016" font-family="Times,serif" font-style="italic" font-size="14.00" fill="#000000">)</text>
</g>
<!-- initial&#45;&gt;matrons -->
<g id="edge6" class="edge">
<title>initial&#45;&gt;matrons</title>
<path fill="none" stroke="#000000" d="M673.392,-458.441C642.6408,-446.1812 603.8785,-430.7275 571.7177,-417.9057"/>
<polygon fill="#000000" stroke="#000000" points="572.9859,-414.6435 562.4007,-414.1913 570.3936,-421.1458 572.9859,-414.6435"/>
</g>
<!-- call -->
<g id="node8" class="node">
<title>call</title>
<ellipse fill="#009acd" stroke="#000000" cx="727" cy="-392.9016" rx="104.8038" ry="25.4118"/>
<text text-anchor="start" x="671.5" y="-396.7016" font-family="Times,serif" font-size="14.00" fill="#000000">Call of the Caragath</text>
<text text-anchor="start" x="661" y="-382.7016" font-family="Times,serif" font-style="italic" font-size="14.00" fill="#000000">(Tûmhorn Beast Tamer)</text>
</g>
<!-- initial&#45;&gt;call -->
<g id="edge5" class="edge">
<title>initial&#45;&gt;call</title>
<path fill="none" stroke="#000000" d="M727,-454.207C727,-446.233 727,-437.2886 727,-428.7488"/>
<polygon fill="#000000" stroke="#000000" points="730.5001,-428.6252 727,-418.6252 723.5001,-428.6252 730.5001,-428.6252"/>
</g>
<!-- from_hunter -->
<g id="node18" class="node">
<title>from_hunter</title>
<ellipse fill="#ffffff" stroke="#000000" cx="301" cy="-392.9016" rx="94.7833" ry="18"/>
<text text-anchor="middle" x="301" y="-389.2016" font-family="Times,serif" font-size="14.00" fill="#000000">From Hunter to Hunted</text>
</g>
<!-- initial&#45;&gt;from_hunter -->
<g id="edge15" class="edge">
<title>initial&#45;&gt;from_hunter</title>
<path fill="none" stroke="#000000" d="M646.0437,-465.5539C580.7843,-453.773 486.7464,-436.1504 405,-418.3574 392.8895,-415.7214 380.0325,-412.7317 367.6394,-409.7514"/>
<polygon fill="#000000" stroke="#000000" points="368.3663,-406.3263 357.823,-407.3702 366.7161,-413.129 368.3663,-406.3263"/>
</g>
<!-- blasted -->
<g id="node10" class="node">
<title>blasted</title>
<ellipse fill="#009acd" stroke="#000000" cx="827" cy="-305.9899" rx="89.6056" ry="25.4118"/>
<text text-anchor="start" x="786" y="-309.7899" font-family="Times,serif" font-size="14.00" fill="#000000">Blasted Uruks!</text>
<text text-anchor="start" x="771.5" y="-295.7899" font-family="Times,serif" font-style="italic" font-size="14.00" fill="#000000">(Ashgarn Smuggler)</text>
</g>
<!-- swift&#45;&gt;blasted -->
<g id="edge7" class="edge">
<title>swift&#45;&gt;blasted</title>
<path fill="none" stroke="#000000" d="M938.1024,-368.6918C918.9621,-357.8898 896.2988,-345.0995 876.4491,-333.8971"/>
<polygon fill="#000000" stroke="#000000" points="877.9789,-330.7415 867.5498,-328.8746 874.5384,-336.8377 877.9789,-330.7415"/>
</g>
<!-- rest -->
<g id="node9" class="node">
<title>rest</title>
<ellipse fill="#009acd" stroke="#000000" cx="1047" cy="-305.9899" rx="111.9462" ry="25.4118"/>
<text text-anchor="start" x="976" y="-309.7899" font-family="Times,serif" font-size="14.00" fill="#000000">No Rest for the Wretched</text>
<text text-anchor="start" x="985.5" y="-295.7899" font-family="Times,serif" font-style="italic" font-size="14.00" fill="#000000">(Zûgor Beast Butcher)</text>
</g>
<!-- aggression&#45;&gt;rest -->
<g id="edge9" class="edge">
<title>aggression&#45;&gt;rest</title>
<path fill="none" stroke="#000000" d="M1198.8759,-370.0666C1171.5653,-358.5442 1138.2865,-344.5038 1109.8489,-332.5059"/>
<polygon fill="#000000" stroke="#000000" points="1110.9801,-329.1845 1100.406,-328.522 1108.259,-335.634 1110.9801,-329.1845"/>
</g>
<!-- belching -->
<g id="node14" class="node">
<title>belching</title>
<ellipse fill="#ffffff" stroke="#000000" cx="1435" cy="-305.9899" rx="87.9851" ry="18"/>
<text text-anchor="middle" x="1435" y="-302.2899" font-family="Times,serif" font-size="14.00" fill="#000000">Belching Monstrosity</text>
</g>
<!-- aggression&#45;&gt;belching -->
<g id="edge16" class="edge">
<title>aggression&#45;&gt;belching</title>
<path fill="none" stroke="#000000" d="M1302.2518,-369.382C1329.9379,-356.1609 1364.2064,-339.7964 1390.9904,-327.0061"/>
<polygon fill="#000000" stroke="#000000" points="1392.6133,-330.1098 1400.129,-322.6421 1389.5968,-323.793 1392.6133,-330.1098"/>
</g>
<!-- heaving -->
<g id="node17" class="node">
<title>heaving</title>
<ellipse fill="#ffffff" stroke="#000000" cx="1253" cy="-305.9899" rx="76.8869" ry="18"/>
<text text-anchor="middle" x="1253" y="-302.2899" font-family="Times,serif" font-size="14.00" fill="#000000">Heaving Rampage</text>
</g>
<!-- aggression&#45;&gt;heaving -->
<g id="edge17" class="edge">
<title>aggression&#45;&gt;heaving</title>
<path fill="none" stroke="#000000" d="M1253,-367.2953C1253,-356.9304 1253,-344.9258 1253,-334.3015"/>
<polygon fill="#000000" stroke="#000000" points="1256.5001,-334.2491 1253,-324.2492 1249.5001,-334.2492 1256.5001,-334.2491"/>
</g>
<!-- stronghold -->
<g id="node12" class="node">
<title>stronghold</title>
<ellipse fill="#009acd" stroke="#000000" cx="542" cy="-305.9899" rx="104.8038" ry="25.4118"/>
<text text-anchor="start" x="486" y="-309.7899" font-family="Times,serif" font-size="14.00" fill="#000000">Stronghold Uprising</text>
<text text-anchor="start" x="476" y="-295.7899" font-family="Times,serif" font-style="italic" font-size="14.00" fill="#000000">(Ûgakûga Graug Rider)</text>
</g>
<!-- matrons&#45;&gt;stronghold -->
<g id="edge8" class="edge">
<title>matrons&#45;&gt;stronghold</title>
<path fill="none" stroke="#000000" d="M518.7226,-367.2953C521.8444,-359.0733 525.3581,-349.8196 528.6911,-341.0415"/>
<polygon fill="#000000" stroke="#000000" points="532.0692,-342.0044 532.3469,-331.4132 525.5251,-339.5196 532.0692,-342.0044"/>
</g>
<!-- oath -->
<g id="node6" class="node">
<title>oath</title>
<ellipse fill="#ff3030" stroke="#000000" cx="827" cy="-219.0782" rx="120.4167" ry="25.4118"/>
<text text-anchor="start" x="778" y="-222.8782" font-family="Times,serif" font-size="14.00" fill="#000000">Hypocritical Oath</text>
<text text-anchor="start" x="750" y="-208.8782" font-family="Times,serif" font-style="italic" font-size="14.00" fill="#000000">(</text>
<text text-anchor="start" x="755" y="-208.8782" font-family="Times,serif" font-weight="bold" font-style="italic" font-size="14.00" fill="#000000">Unlocks:</text>
<text text-anchor="start" x="806" y="-208.8782" font-family="Times,serif" font-style="italic" font-size="14.00" fill="#000000"> Dominate Ghûls)</text>
</g>
<!-- homewrecker -->
<g id="node11" class="node">
<title>homewrecker</title>
<ellipse fill="#009acd" stroke="#000000" cx="1018" cy="-122.267" rx="103.4757" ry="35.2113"/>
<text text-anchor="start" x="979" y="-133.067" font-family="Times,serif" font-size="14.00" fill="#000000">Homewrecker</text>
<text text-anchor="start" x="953" y="-119.067" font-family="Times,serif" font-style="italic" font-size="14.00" fill="#000000">(Shágflak Ghûl Keeper)</text>
<text text-anchor="start" x="985" y="-105.067" font-family="Times,serif" font-weight="bold" font-style="italic" font-size="14.00" fill="#000000">(Story End)</text>
</g>
<!-- oath&#45;&gt;homewrecker -->
<g id="edge14" class="edge">
<title>oath&#45;&gt;homewrecker</title>
<path fill="none" stroke="#000000" d="M873.7239,-195.3955C896.937,-183.6296 925.4057,-169.1998 950.903,-156.2762"/>
<polygon fill="#000000" stroke="#000000" points="952.8097,-159.2337 960.147,-151.5907 949.645,-152.9899 952.8097,-159.2337"/>
</g>
<!-- feast -->
<g id="node16" class="node">
<title>feast</title>
<ellipse fill="#ffffff" stroke="#000000" cx="827" cy="-122.267" rx="69.5877" ry="18"/>
<text text-anchor="middle" x="827" y="-118.567" font-family="Times,serif" font-size="14.00" fill="#000000">A Feast of Flesh</text>
</g>
<!-- oath&#45;&gt;feast -->
<g id="edge18" class="edge">
<title>oath&#45;&gt;feast</title>
<path fill="none" stroke="#000000" d="M827,-193.3888C827,-180.2168 827,-164.1427 827,-150.6102"/>
<polygon fill="#000000" stroke="#000000" points="830.5001,-150.4063 827,-140.4063 823.5001,-150.4064 830.5001,-150.4063"/>
</g>
<!-- label_legends -->
<g id="node13" class="node">
<title>label_legends</title>
<ellipse fill="#ffffff" stroke="#000000" cx="103" cy="-305.9899" rx="87.1846" ry="18"/>
<text text-anchor="middle" x="103" y="-302.2899" font-family="Times,serif" font-size="14.00" fill="#000000">Legend of the Hunter</text>
</g>
<!-- label_warchief&#45;&gt;label_legends -->
<!-- call&#45;&gt;oath -->
<g id="edge10" class="edge">
<title>call&#45;&gt;oath</title>
<path fill="none" stroke="#000000" d="M720.5434,-367.3275C715.9192,-343.1856 712.8667,-306.7899 728,-279.9899 735.6512,-266.4401 747.6752,-255.5266 760.7434,-246.8906"/>
<polygon fill="#000000" stroke="#000000" points="762.761,-249.7588 769.4465,-241.5396 759.0947,-243.7957 762.761,-249.7588"/>
</g>
<!-- rest&#45;&gt;oath -->
<g id="edge12" class="edge">
<title>rest&#45;&gt;oath</title>
<path fill="none" stroke="#000000" d="M990.9155,-283.8335C961.2652,-272.1201 924.6715,-257.6636 893.587,-245.3836"/>
<polygon fill="#000000" stroke="#000000" points="894.7172,-242.0669 884.1307,-241.6479 892.1452,-248.5773 894.7172,-242.0669"/>
</g>
<!-- blasted&#45;&gt;oath -->
<g id="edge13" class="edge">
<title>blasted&#45;&gt;oath</title>
<path fill="none" stroke="#000000" d="M827,-280.3836C827,-272.4097 827,-263.4652 827,-254.9254"/>
<polygon fill="#000000" stroke="#000000" points="830.5001,-254.8018 827,-244.8018 823.5001,-254.8019 830.5001,-254.8018"/>
</g>
<!-- stronghold&#45;&gt;oath -->
<g id="edge11" class="edge">
<title>stronghold&#45;&gt;oath</title>
<path fill="none" stroke="#000000" d="M607.3848,-286.0506C649.4121,-273.2342 704.2459,-256.5125 748.6078,-242.9842"/>
<polygon fill="#000000" stroke="#000000" points="749.6505,-246.3254 758.1947,-240.0606 747.6086,-239.6298 749.6505,-246.3254"/>
</g>
<!-- master -->
<g id="node15" class="node">
<title>master</title>
<ellipse fill="#ffffff" stroke="#000000" cx="988" cy="-25.4558" rx="111.0315" ry="25.4118"/>
<text text-anchor="start" x="951.5" y="-29.2558" font-family="Times,serif" font-size="14.00" fill="#000000">Beast Master</text>
<text text-anchor="start" x="917.5" y="-15.2558" font-family="Times,serif" font-style="italic" font-size="14.00" fill="#000000">(</text>
<text text-anchor="start" x="922.5" y="-15.2558" font-family="Times,serif" font-weight="bold" font-style="italic" font-size="14.00" fill="#000000">Unlocks:</text>
<text text-anchor="start" x="973.5" y="-15.2558" font-family="Times,serif" font-size="14.00" fill="#000000"> Blazing Steed</text>
<text text-anchor="start" x="1053.5" y="-15.2558" font-family="Times,serif" font-style="italic" font-size="14.00" fill="#000000">)</text>
</g>
<!-- belching&#45;&gt;master -->
<g id="edge20" class="edge">
<title>belching&#45;&gt;master</title>
<path fill="none" stroke="#000000" d="M1418.1602,-288.0669C1378.6837,-247.0037 1275.5772,-145.1791 1171,-86.9117 1140.886,-70.133 1105.428,-56.9162 1073.7819,-47.1076"/>
<polygon fill="#000000" stroke="#000000" points="1074.6785,-43.7222 1064.0932,-44.1728 1072.6491,-50.4216 1074.6785,-43.7222"/>
</g>
<!-- feast&#45;&gt;master -->
<g id="edge21" class="edge">
<title>feast&#45;&gt;master</title>
<path fill="none" stroke="#000000" d="M854.6769,-105.6246C877.9603,-91.624 911.7993,-71.2762 939.5589,-54.5841"/>
<polygon fill="#000000" stroke="#000000" points="941.5707,-57.4584 948.337,-49.3057 937.9634,-51.4594 941.5707,-57.4584"/>
</g>
<!-- heaving&#45;&gt;master -->
<g id="edge22" class="edge">
<title>heaving&#45;&gt;master</title>
<path fill="none" stroke="#000000" d="M1247.3209,-287.8226C1233.6094,-246.6918 1194.9462,-145.4826 1130,-86.9117 1112.1087,-70.7766 1089.3245,-58.4041 1067.2718,-49.1381"/>
<polygon fill="#000000" stroke="#000000" points="1068.4653,-45.8456 1057.8818,-45.3553 1065.8495,-52.3386 1068.4653,-45.8456"/>
</g>
<!-- from_hunter&#45;&gt;master -->
<g id="edge19" class="edge">
<title>from_hunter&#45;&gt;master</title>
<path fill="none" stroke="#000000" d="M319.0207,-374.9392C342.8498,-351.6549 386.6664,-310.4329 428,-279.9899 561.7446,-181.4843 594.7999,-151.1041 748,-86.9117 793.547,-67.827 846.515,-53.4993 891.0855,-43.5005"/>
<polygon fill="#000000" stroke="#000000" points="892.0344,-46.8754 901.0472,-41.3059 890.5284,-40.0394 892.0344,-46.8754"/>
</g>
</g>
</svg>
