<?xml version="1.0" encoding="UTF-8" standalone="no"?>
<!DOCTYPE svg PUBLIC "-//W3C//DTD SVG 1.1//EN"
 "http://www.w3.org/Graphics/SVG/1.1/DTD/svg11.dtd">
<!-- Generated by graphviz version 2.40.1 (20161225.0304)
 -->
<!-- Title: mordor_condensed Pages: 1 -->
<svg width="1150pt" height="1313pt"
 viewBox="0.00 0.00 1150.41 1313.49" xmlns="http://www.w3.org/2000/svg" xmlns:xlink="http://www.w3.org/1999/xlink">
<g id="graph0" class="graph" transform="scale(1 1) rotate(0) translate(4 1309.4895)">
<title>mordor_condensed</title>
<polygon fill="#ffffff" stroke="transparent" points="-4,4 -4,-1309.4895 1146.4127,-1309.4895 1146.4127,4 -4,4"/>
<text text-anchor="start" x="308.7064" y="-1282.4895" font-family="Times,serif" font-style="italic" font-size="25.00" fill="#000000">Shadow of Mordor</text>
<text text-anchor="start" x="499.7064" y="-1282.4895" font-family="Times,serif" font-size="25.00" fill="#000000"> mission/unlock tree (condensed)</text>
<text text-anchor="start" x="362.2064" y="-1257.4895" font-family="Times,serif" baseline-shift="super" font-size="25.00" fill="#000000">https://github.com/apocalyptech/mordormissions/</text>
<text text-anchor="start" x="263.7064" y="-1232.4895" font-family="Times,serif" baseline-shift="super" font-size="25.00" fill="#000000">CC0 1.0 Universal &#45; https://creativecommons.org/publicdomain/zero/1.0/</text>
<g id="clust7" class="cluster">
<title>cluster_key</title>
<polygon fill="none" stroke="#000000" points="8,-627.6468 8,-1214.4895 238,-1214.4895 238,-627.6468 8,-627.6468"/>
<text text-anchor="middle" x="123" y="-1190.4895" font-family="Times,serif" font-size="25.00" fill="#000000">Key</text>
</g>
<!-- label_main -->
<g id="node1" class="node">
<title>label_main</title>
<ellipse fill="#bf3eff" stroke="#000000" cx="123" cy="-1152.4895" rx="49.2915" ry="18"/>
<text text-anchor="middle" x="123" y="-1148.7895" font-family="Times,serif" font-size="14.00" fill="#000000">Main/Boss</text>
</g>
<!-- label_hirgon -->
<g id="node8" class="node">
<title>label_hirgon</title>
<ellipse fill="#d2691e" stroke="#000000" cx="123" cy="-1063.1341" rx="35.9954" ry="18"/>
<text text-anchor="middle" x="123" y="-1059.4341" font-family="Times,serif" font-size="14.00" fill="#000000">Hirgon</text>
</g>
<!-- label_main&#45;&gt;label_hirgon -->
<!-- prologue -->
<g id="node2" class="node">
<title>prologue</title>
<ellipse fill="#bf3eff" stroke="#000000" cx="697" cy="-1152.4895" rx="109.6807" ry="18"/>
<text text-anchor="middle" x="697" y="-1148.7895" font-family="Times,serif" font-size="14.00" fill="#000000">Prologue / Entering Mordor</text>
</g>
<!-- slaver -->
<g id="node9" class="node">
<title>slaver</title>
<ellipse fill="#d2691e" stroke="#000000" cx="588" cy="-1063.1341" rx="149.3993" ry="35.2113"/>
<text text-anchor="start" x="558" y="-1073.9341" font-family="Times,serif" font-size="14.00" fill="#000000">The Slaver</text>
<text text-anchor="start" x="490.5" y="-1059.9341" font-family="Times,serif" font-style="italic" font-size="14.00" fill="#000000">(</text>
<text text-anchor="start" x="495.5" y="-1059.9341" font-family="Times,serif" font-weight="bold" font-style="italic" font-size="14.00" fill="#000000">Unlocks:</text>
<text text-anchor="start" x="546.5" y="-1059.9341" font-family="Times,serif" font-style="italic" font-size="14.00" fill="#000000"> Outcast Rescue missions</text>
<text text-anchor="start" x="560.5" y="-1045.9341" font-family="Times,serif" font-style="italic" font-size="14.00" fill="#000000">(batch 1))</text>
</g>
<!-- prologue&#45;&gt;slaver -->
<g id="edge6" class="edge">
<title>prologue&#45;&gt;slaver</title>
<path fill="none" stroke="#000000" d="M675.4651,-1134.8357C664.5737,-1125.9072 650.8687,-1114.6723 637.56,-1103.7621"/>
<polygon fill="#000000" stroke="#000000" points="639.7465,-1101.0288 629.794,-1097.3958 635.3086,-1106.4423 639.7465,-1101.0288"/>
</g>
<!-- spirit -->
<g id="node17" class="node">
<title>spirit</title>
<ellipse fill="#6e8b3d" stroke="#000000" cx="786" cy="-956.4234" rx="120.4167" ry="35.2113"/>
<text text-anchor="start" x="728" y="-967.2234" font-family="Times,serif" font-size="14.00" fill="#000000">The Spirit of Mordor</text>
<text text-anchor="start" x="709" y="-953.2234" font-family="Times,serif" font-style="italic" font-size="14.00" fill="#000000">(</text>
<text text-anchor="start" x="714" y="-953.2234" font-family="Times,serif" font-weight="bold" font-style="italic" font-size="14.00" fill="#000000">Unlocks:</text>
<text text-anchor="start" x="765" y="-953.2234" font-family="Times,serif" font-style="italic" font-size="14.00" fill="#000000"> Power Struggles,</text>
<text text-anchor="start" x="734.5" y="-939.2234" font-family="Times,serif" font-style="italic" font-size="14.00" fill="#000000">Vendetta missions)</text>
</g>
<!-- prologue&#45;&gt;spirit -->
<g id="edge7" class="edge">
<title>prologue&#45;&gt;spirit</title>
<path fill="none" stroke="#000000" d="M717.0721,-1134.6983C727.0396,-1124.8984 738.5188,-1112.001 746,-1098.4895 762.6541,-1068.4111 772.839,-1030.8346 778.7609,-1001.8833"/>
<polygon fill="#000000" stroke="#000000" points="782.2038,-1002.5138 780.6814,-992.029 775.333,-1001.1748 782.2038,-1002.5138"/>
</g>
<!-- kill -->
<g id="node3" class="node">
<title>kill</title>
<ellipse fill="#bf3eff" stroke="#000000" cx="972" cy="-733.1026" rx="170.3255" ry="25.4118"/>
<text text-anchor="start" x="872" y="-736.9026" font-family="Times,serif" font-style="italic" font-size="14.00" fill="#000000">Warchief Hunt &#45; kill four Warchiefs.</text>
<text text-anchor="start" x="859.5" y="-722.9026" font-family="Times,serif" font-style="italic" font-size="14.00" fill="#000000">(&quot;</text>
<text text-anchor="start" x="870.5" y="-722.9026" font-family="Times,serif" font-size="14.00" fill="#000000">The Warchief</text>
<text text-anchor="start" x="946.5" y="-722.9026" font-family="Times,serif" font-style="italic" font-size="14.00" fill="#000000">&quot; mission counts as one.)</text>
</g>
<!-- monument -->
<g id="node11" class="node">
<title>monument</title>
<ellipse fill="#d2691e" stroke="#000000" cx="680" cy="-653.6468" rx="86.3847" ry="18"/>
<text text-anchor="middle" x="680" y="-649.9468" font-family="Times,serif" font-size="14.00" fill="#000000">The Dark Monument</text>
</g>
<!-- kill&#45;&gt;monument -->
<g id="edge19" class="edge">
<title>kill&#45;&gt;monument</title>
<path fill="none" stroke="#000000" d="M889.8847,-710.7583C843.0929,-698.0258 785.396,-682.326 742.3451,-670.6114"/>
<polygon fill="#000000" stroke="#000000" points="743.1316,-667.1982 732.5634,-667.9497 741.2936,-673.9526 743.1316,-667.1982"/>
</g>
<!-- captain -->
<g id="node4" class="node">
<title>captain</title>
<ellipse fill="#bf3eff" stroke="#000000" cx="597" cy="-581.6468" rx="77.1866" ry="18"/>
<text text-anchor="middle" x="597" y="-577.9468" font-family="Times,serif" font-size="14.00" fill="#000000">The Black Captain</text>
</g>
<!-- messenger -->
<g id="node21" class="node">
<title>messenger</title>
<ellipse fill="#009acd" stroke="#000000" cx="597" cy="-502.1909" rx="77.1494" ry="25.4118"/>
<text text-anchor="start" x="554.5" y="-505.9909" font-family="Times,serif" font-size="14.00" fill="#000000">The Messenger</text>
<text text-anchor="start" x="550.5" y="-491.9909" font-family="Times,serif" font-style="italic" font-size="14.00" fill="#000000">(</text>
<text text-anchor="start" x="555.5" y="-491.9909" font-family="Times,serif" font-weight="bold" font-style="italic" font-size="14.00" fill="#000000">Unlocks:</text>
<text text-anchor="start" x="606.5" y="-491.9909" font-family="Times,serif" font-style="italic" font-size="14.00" fill="#000000"> Nurn)</text>
</g>
<!-- captain&#45;&gt;messenger -->
<g id="edge23" class="edge">
<title>captain&#45;&gt;messenger</title>
<path fill="none" stroke="#000000" d="M597,-563.617C597,-555.9821 597,-546.8048 597,-537.8997"/>
<polygon fill="#000000" stroke="#000000" points="600.5001,-537.6796 597,-527.6796 593.5001,-537.6796 600.5001,-537.6796"/>
</g>
<!-- brand -->
<g id="node5" class="node">
<title>brand</title>
<ellipse fill="#bf3eff" stroke="#000000" cx="528" cy="-241.4558" rx="98.9899" ry="25.4118"/>
<text text-anchor="start" x="471" y="-245.2558" font-family="Times,serif" font-style="italic" font-size="14.00" fill="#000000">Brand the Warchiefs</text>
<text text-anchor="start" x="466" y="-231.2558" font-family="Times,serif" font-style="italic" font-size="14.00" fill="#000000">(brand four warchiefs)</text>
</g>
<!-- lord -->
<g id="node6" class="node">
<title>lord</title>
<ellipse fill="#bf3eff" stroke="#000000" cx="528" cy="-90" rx="67.6881" ry="18"/>
<text text-anchor="middle" x="528" y="-86.3" font-family="Times,serif" font-size="14.00" fill="#000000">Lord of Mordor</text>
</g>
<!-- brand&#45;&gt;lord -->
<g id="edge31" class="edge">
<title>brand&#45;&gt;lord</title>
<path fill="none" stroke="#000000" d="M528,-215.7634C528,-188.7921 528,-146.4936 528,-118.5096"/>
<polygon fill="#000000" stroke="#000000" points="531.5001,-118.1914 528,-108.1915 524.5001,-118.1915 531.5001,-118.1914"/>
</g>
<!-- flames -->
<g id="node7" class="node">
<title>flames</title>
<ellipse fill="#bf3eff" stroke="#000000" cx="528" cy="-18" rx="75.2868" ry="18"/>
<text text-anchor="middle" x="528" y="-14.3" font-family="Times,serif" font-size="14.00" fill="#000000">Mordor in Flames</text>
</g>
<!-- lord&#45;&gt;flames -->
<g id="edge35" class="edge">
<title>lord&#45;&gt;flames</title>
<path fill="none" stroke="#000000" d="M528,-71.8314C528,-64.131 528,-54.9743 528,-46.4166"/>
<polygon fill="#000000" stroke="#000000" points="531.5001,-46.4132 528,-36.4133 524.5001,-46.4133 531.5001,-46.4132"/>
</g>
<!-- label_gollum -->
<g id="node12" class="node">
<title>label_gollum</title>
<ellipse fill="#7f7f7f" stroke="#000000" cx="123" cy="-956.4234" rx="38.1938" ry="18"/>
<text text-anchor="middle" x="123" y="-952.7234" font-family="Times,serif" font-size="14.00" fill="#000000">Gollum</text>
</g>
<!-- label_hirgon&#45;&gt;label_gollum -->
<!-- interested -->
<g id="node13" class="node">
<title>interested</title>
<ellipse fill="#7f7f7f" stroke="#000000" cx="568" cy="-956.4234" rx="79.0865" ry="18"/>
<text text-anchor="middle" x="568" y="-952.7234" font-family="Times,serif" font-size="14.00" fill="#000000">An Interested Party</text>
</g>
<!-- slaver&#45;&gt;interested -->
<g id="edge8" class="edge">
<title>slaver&#45;&gt;interested</title>
<path fill="none" stroke="#000000" d="M581.3403,-1027.601C578.7042,-1013.536 575.7182,-997.6041 573.2406,-984.3847"/>
<polygon fill="#000000" stroke="#000000" points="576.6613,-983.636 571.3789,-974.4519 569.7811,-984.9255 576.6613,-983.636"/>
</g>
<!-- outcasts -->
<g id="node10" class="node">
<title>outcasts</title>
<ellipse fill="#d2691e" stroke="#000000" cx="677" cy="-839.8133" rx="140.9288" ry="45.011"/>
<text text-anchor="start" x="641" y="-857.6133" font-family="Times,serif" font-size="14.00" fill="#000000">The Outcasts</text>
<text text-anchor="start" x="585.5" y="-843.6133" font-family="Times,serif" font-style="italic" font-size="14.00" fill="#000000">(</text>
<text text-anchor="start" x="590.5" y="-843.6133" font-family="Times,serif" font-weight="bold" font-style="italic" font-size="14.00" fill="#000000">Unlocks:</text>
<text text-anchor="start" x="641.5" y="-843.6133" font-family="Times,serif" font-size="14.00" fill="#000000"> Poison </text>
<text text-anchor="start" x="686.5" y="-843.6133" font-family="Times,serif" font-style="italic" font-size="14.00" fill="#000000">(grog barrels),</text>
<text text-anchor="start" x="609.5" y="-829.6133" font-family="Times,serif" font-style="italic" font-size="14.00" fill="#000000">Outcast Rescue missions</text>
<text text-anchor="start" x="649.5" y="-815.6133" font-family="Times,serif" font-style="italic" font-size="14.00" fill="#000000">(batch 2))</text>
</g>
<!-- outcasts&#45;&gt;monument -->
<g id="edge21" class="edge">
<title>outcasts&#45;&gt;monument</title>
<path fill="none" stroke="#000000" d="M660.9477,-794.6291C653.9683,-768.992 648.6707,-736.3835 655,-707.6468 656.9805,-698.6548 660.6121,-689.3788 664.5051,-681.1064"/>
<polygon fill="#000000" stroke="#000000" points="667.7516,-682.4406 669.112,-671.9335 661.4962,-679.2989 667.7516,-682.4406"/>
</g>
<!-- monument&#45;&gt;captain -->
<g id="edge22" class="edge">
<title>monument&#45;&gt;captain</title>
<path fill="none" stroke="#000000" d="M659.4831,-635.849C649.1305,-626.8684 636.4137,-615.837 625.161,-606.0756"/>
<polygon fill="#000000" stroke="#000000" points="627.1282,-603.1487 617.2809,-599.2398 622.5413,-608.4365 627.1282,-603.1487"/>
</g>
<!-- label_ratbag -->
<g id="node16" class="node">
<title>label_ratbag</title>
<ellipse fill="#6e8b3d" stroke="#000000" cx="123" cy="-839.8133" rx="35.9954" ry="18"/>
<text text-anchor="middle" x="123" y="-836.1133" font-family="Times,serif" font-size="14.00" fill="#000000">Ratbag</text>
</g>
<!-- label_gollum&#45;&gt;label_ratbag -->
<!-- interested&#45;&gt;outcasts -->
<g id="edge13" class="edge">
<title>interested&#45;&gt;outcasts</title>
<path fill="none" stroke="#000000" d="M584.5548,-938.7129C596.5924,-925.8348 613.5331,-907.7113 629.6296,-890.491"/>
<polygon fill="#000000" stroke="#000000" points="632.1878,-892.8796 636.4596,-883.1841 627.074,-888.0995 632.1878,-892.8796"/>
</g>
<!-- shattered -->
<g id="node14" class="node">
<title>shattered</title>
<ellipse fill="#7f7f7f" stroke="#000000" cx="382" cy="-839.8133" rx="136.4432" ry="25.4118"/>
<text text-anchor="start" x="326" y="-843.6133" font-family="Times,serif" font-size="14.00" fill="#000000">Shattered Memories</text>
<text text-anchor="start" x="293.5" y="-829.6133" font-family="Times,serif" font-style="italic" font-size="14.00" fill="#000000">(</text>
<text text-anchor="start" x="298.5" y="-829.6133" font-family="Times,serif" font-weight="bold" font-style="italic" font-size="14.00" fill="#000000">Unlocks:</text>
<text text-anchor="start" x="349.5" y="-829.6133" font-family="Times,serif" font-style="italic" font-size="14.00" fill="#000000"> Ghuls,</text>
<text text-anchor="start" x="389.5" y="-829.6133" font-family="Times,serif" font-size="14.00" fill="#000000"> Wraith Flash</text>
<text text-anchor="start" x="465.5" y="-829.6133" font-family="Times,serif" font-style="italic" font-size="14.00" fill="#000000">)</text>
</g>
<!-- interested&#45;&gt;shattered -->
<g id="edge12" class="edge">
<title>interested&#45;&gt;shattered</title>
<path fill="none" stroke="#000000" d="M540.954,-939.4673C511.8814,-921.2407 465.0924,-891.9069 429.7894,-869.7742"/>
<polygon fill="#000000" stroke="#000000" points="431.4111,-866.66 421.0794,-864.3136 427.6928,-872.5908 431.4111,-866.66"/>
</g>
<!-- climbing -->
<g id="node18" class="node">
<title>climbing</title>
<ellipse fill="#6e8b3d" stroke="#000000" cx="932" cy="-839.8133" rx="96.3333" ry="25.4118"/>
<text text-anchor="start" x="877" y="-843.6133" font-family="Times,serif" font-size="14.00" fill="#000000">Climbing the Ranks</text>
<text text-anchor="start" x="872" y="-829.6133" font-family="Times,serif" font-style="italic" font-size="14.00" fill="#000000">(</text>
<text text-anchor="start" x="877" y="-829.6133" font-family="Times,serif" font-weight="bold" font-style="italic" font-size="14.00" fill="#000000">Unlocks:</text>
<text text-anchor="start" x="928" y="-829.6133" font-family="Times,serif" font-style="italic" font-size="14.00" fill="#000000"> Warchiefs)</text>
</g>
<!-- interested&#45;&gt;climbing -->
<g id="edge14" class="edge">
<title>interested&#45;&gt;climbing</title>
<path fill="none" stroke="#000000" d="M604.3104,-940.3818C620.2553,-933.7613 639.3339,-926.4055 657,-921.0681 730.9305,-898.7316 753.3988,-908.4671 827,-885.0681 843.2141,-879.9134 860.3412,-873.1374 875.9522,-866.4037"/>
<polygon fill="#000000" stroke="#000000" points="877.7056,-869.4564 885.4547,-862.2313 874.8913,-863.047 877.7056,-869.4564"/>
</g>
<!-- truth -->
<g id="node15" class="node">
<title>truth</title>
<ellipse fill="#7f7f7f" stroke="#000000" cx="418" cy="-733.1026" rx="113.6886" ry="25.4118"/>
<text text-anchor="start" x="377" y="-736.9026" font-family="Times,serif" font-size="14.00" fill="#000000">The One Truth</text>
<text text-anchor="start" x="345.5" y="-722.9026" font-family="Times,serif" font-style="italic" font-size="14.00" fill="#000000">(</text>
<text text-anchor="start" x="350.5" y="-722.9026" font-family="Times,serif" font-weight="bold" font-style="italic" font-size="14.00" fill="#000000">Unlocks:</text>
<text text-anchor="start" x="401.5" y="-722.9026" font-family="Times,serif" font-size="14.00" fill="#000000"> Shadow Strike</text>
<text text-anchor="start" x="485.5" y="-722.9026" font-family="Times,serif" font-style="italic" font-size="14.00" fill="#000000">)</text>
</g>
<!-- shattered&#45;&gt;truth -->
<g id="edge17" class="edge">
<title>shattered&#45;&gt;truth</title>
<path fill="none" stroke="#000000" d="M390.6229,-814.2534C395.2642,-800.4957 401.0595,-783.3174 406.1216,-768.3124"/>
<polygon fill="#000000" stroke="#000000" points="409.4424,-769.4179 409.3227,-758.8237 402.8097,-767.1802 409.4424,-769.4179"/>
</g>
<!-- truth&#45;&gt;captain -->
<g id="edge20" class="edge">
<title>truth&#45;&gt;captain</title>
<path fill="none" stroke="#000000" d="M447.1578,-708.4315C480.5833,-680.1495 535.0272,-634.0833 568.2714,-605.9546"/>
<polygon fill="#000000" stroke="#000000" points="570.8677,-608.3427 576.2409,-599.2115 566.3461,-602.9989 570.8677,-608.3427"/>
</g>
<!-- label_queen -->
<g id="node20" class="node">
<title>label_queen</title>
<ellipse fill="#009acd" stroke="#000000" cx="123" cy="-733.1026" rx="106.6812" ry="18"/>
<text text-anchor="middle" x="123" y="-729.4026" font-family="Times,serif" font-size="14.00" fill="#000000">Queen Marwen + Lithariel</text>
</g>
<!-- label_ratbag&#45;&gt;label_queen -->
<!-- spirit&#45;&gt;outcasts -->
<g id="edge11" class="edge">
<title>spirit&#45;&gt;outcasts</title>
<path fill="none" stroke="#000000" d="M753.8859,-922.0673C744.7901,-912.3364 734.6874,-901.5283 724.8754,-891.0313"/>
<polygon fill="#000000" stroke="#000000" points="727.1863,-888.3781 717.8007,-883.4626 722.0725,-893.1581 727.1863,-888.3781"/>
</g>
<!-- spirit&#45;&gt;shattered -->
<g id="edge10" class="edge">
<title>spirit&#45;&gt;shattered</title>
<path fill="none" stroke="#000000" d="M697.5377,-932.3933C635.7925,-915.5554 558.9405,-894.4494 527,-885.0681 505.3872,-878.7202 482.0542,-871.5701 460.555,-864.8599"/>
<polygon fill="#000000" stroke="#000000" points="461.4078,-861.4594 450.8188,-861.8122 459.3166,-868.1398 461.4078,-861.4594"/>
</g>
<!-- spirit&#45;&gt;climbing -->
<g id="edge9" class="edge">
<title>spirit&#45;&gt;climbing</title>
<path fill="none" stroke="#000000" d="M827.8377,-923.0077C848.4263,-906.5636 873.086,-886.8679 893.2424,-870.7689"/>
<polygon fill="#000000" stroke="#000000" points="895.6655,-873.313 901.2949,-864.3374 891.297,-867.8434 895.6655,-873.313"/>
</g>
<!-- climbing&#45;&gt;kill -->
<g id="edge16" class="edge">
<title>climbing&#45;&gt;kill</title>
<path fill="none" stroke="#000000" d="M941.581,-814.2534C946.738,-800.4957 953.1772,-783.3174 958.8018,-768.3124"/>
<polygon fill="#000000" stroke="#000000" points="962.1258,-769.416 962.3585,-758.8237 955.5712,-766.959 962.1258,-769.416"/>
</g>
<!-- warchief -->
<g id="node19" class="node">
<title>warchief</title>
<ellipse fill="#6e8b3d" stroke="#000000" cx="724" cy="-733.1026" rx="59.5901" ry="18"/>
<text text-anchor="middle" x="724" y="-729.4026" font-family="Times,serif" font-size="14.00" fill="#000000">The Warchief</text>
</g>
<!-- climbing&#45;&gt;warchief -->
<g id="edge15" class="edge">
<title>climbing&#45;&gt;warchief</title>
<path fill="none" stroke="#000000" d="M887.8885,-817.1827C850.9976,-798.2564 798.8557,-771.506 763.3601,-753.2956"/>
<polygon fill="#000000" stroke="#000000" points="764.7609,-750.0806 754.2658,-748.6299 761.5656,-756.3088 764.7609,-750.0806"/>
</g>
<!-- warchief&#45;&gt;monument -->
<g id="edge18" class="edge">
<title>warchief&#45;&gt;monument</title>
<path fill="none" stroke="#000000" d="M714.0157,-715.0728C708.39,-704.9139 701.2523,-692.0244 694.9694,-680.6787"/>
<polygon fill="#000000" stroke="#000000" points="697.8512,-678.6578 689.9448,-671.6052 691.7274,-682.049 697.8512,-678.6578"/>
</g>
<!-- label_torvin -->
<g id="node26" class="node">
<title>label_torvin</title>
<ellipse fill="#ff3030" stroke="#000000" cx="123" cy="-653.6468" rx="34.394" ry="18"/>
<text text-anchor="middle" x="123" y="-649.9468" font-family="Times,serif" font-size="14.00" fill="#000000">Torvin</text>
</g>
<!-- label_queen&#45;&gt;label_torvin -->
<!-- queen -->
<g id="node22" class="node">
<title>queen</title>
<ellipse fill="#009acd" stroke="#000000" cx="486" cy="-415.2792" rx="86.0347" ry="25.4118"/>
<text text-anchor="start" x="433" y="-419.0792" font-family="Times,serif" font-size="14.00" fill="#000000">Queen of the Shore</text>
<text text-anchor="start" x="437" y="-405.0792" font-family="Times,serif" font-style="italic" font-size="14.00" fill="#000000">(</text>
<text text-anchor="start" x="442" y="-405.0792" font-family="Times,serif" font-weight="bold" font-style="italic" font-size="14.00" fill="#000000">Unlocks:</text>
<text text-anchor="start" x="493" y="-405.0792" font-family="Times,serif" font-size="14.00" fill="#000000"> Brand</text>
<text text-anchor="start" x="530" y="-405.0792" font-family="Times,serif" font-style="italic" font-size="14.00" fill="#000000">)</text>
</g>
<!-- messenger&#45;&gt;queen -->
<g id="edge24" class="edge">
<title>messenger&#45;&gt;queen</title>
<path fill="none" stroke="#000000" d="M566.9618,-478.6714C553.8659,-468.4174 538.3553,-456.2728 524.4322,-445.3712"/>
<polygon fill="#000000" stroke="#000000" points="526.4796,-442.529 516.4482,-439.1198 522.1641,-448.0406 526.4796,-442.529"/>
</g>
<!-- game -->
<g id="node27" class="node">
<title>game</title>
<ellipse fill="#ff3030" stroke="#000000" cx="724" cy="-415.2792" rx="117.2596" ry="25.4118"/>
<text text-anchor="start" x="695.5" y="-419.0792" font-family="Times,serif" font-size="14.00" fill="#000000">Big Game</text>
<text text-anchor="start" x="649" y="-405.0792" font-family="Times,serif" font-style="italic" font-size="14.00" fill="#000000">(</text>
<text text-anchor="start" x="654" y="-405.0792" font-family="Times,serif" font-weight="bold" font-style="italic" font-size="14.00" fill="#000000">Unlocks:</text>
<text text-anchor="start" x="705" y="-405.0792" font-family="Times,serif" font-size="14.00" fill="#000000"> Caragor Hunter</text>
<text text-anchor="start" x="794" y="-405.0792" font-family="Times,serif" font-style="italic" font-size="14.00" fill="#000000">)</text>
</g>
<!-- messenger&#45;&gt;game -->
<g id="edge25" class="edge">
<title>messenger&#45;&gt;game</title>
<path fill="none" stroke="#000000" d="M630.7002,-479.1284C645.8439,-468.7649 663.9119,-456.4001 680.0968,-445.3241"/>
<polygon fill="#000000" stroke="#000000" points="682.0875,-448.2029 688.3634,-439.6669 678.1342,-442.4261 682.0875,-448.2029"/>
</g>
<!-- power -->
<g id="node23" class="node">
<title>power</title>
<ellipse fill="#009acd" stroke="#000000" cx="454" cy="-328.3675" rx="157.8698" ry="25.4118"/>
<text text-anchor="start" x="385.5" y="-332.1675" font-family="Times,serif" font-size="14.00" fill="#000000">The Power of the Wraith</text>
<text text-anchor="start" x="350.5" y="-318.1675" font-family="Times,serif" font-style="italic" font-size="14.00" fill="#000000">(</text>
<text text-anchor="start" x="355.5" y="-318.1675" font-family="Times,serif" font-weight="bold" font-style="italic" font-size="14.00" fill="#000000">Unlocks:</text>
<text text-anchor="start" x="406.5" y="-318.1675" font-family="Times,serif" font-style="italic" font-size="14.00" fill="#000000"> Command Branded Uruks)</text>
</g>
<!-- queen&#45;&gt;power -->
<g id="edge26" class="edge">
<title>queen&#45;&gt;power</title>
<path fill="none" stroke="#000000" d="M476.572,-389.6729C473.5448,-381.451 470.1376,-372.1972 466.9056,-363.4191"/>
<polygon fill="#000000" stroke="#000000" points="470.1002,-361.9656 463.3606,-353.7908 463.5314,-364.3843 470.1002,-361.9656"/>
</g>
<!-- power&#45;&gt;brand -->
<g id="edge30" class="edge">
<title>power&#45;&gt;brand</title>
<path fill="none" stroke="#000000" d="M475.8022,-302.7612C483.3962,-293.8422 492.0241,-283.7089 500.0473,-274.2858"/>
<polygon fill="#000000" stroke="#000000" points="502.7906,-276.4627 506.6086,-266.5797 497.4608,-271.9247 502.7906,-276.4627"/>
</g>
<!-- cure -->
<g id="node24" class="node">
<title>cure</title>
<ellipse fill="#009acd" stroke="#000000" cx="367" cy="-241.4558" rx="44.393" ry="18"/>
<text text-anchor="middle" x="367" y="-237.7558" font-family="Times,serif" font-size="14.00" fill="#000000">The Cure</text>
</g>
<!-- power&#45;&gt;cure -->
<g id="edge29" class="edge">
<title>power&#45;&gt;cure</title>
<path fill="none" stroke="#000000" d="M428.836,-303.2291C416.9799,-291.385 402.8995,-277.3189 391.1718,-265.6031"/>
<polygon fill="#000000" stroke="#000000" points="393.4001,-262.8819 383.8518,-258.2906 388.4529,-267.8342 393.4001,-262.8819"/>
</g>
<!-- rescue -->
<g id="node25" class="node">
<title>rescue</title>
<ellipse fill="#009acd" stroke="#000000" cx="408" cy="-162" rx="51.9908" ry="18"/>
<text text-anchor="middle" x="408" y="-158.3" font-family="Times,serif" font-size="14.00" fill="#000000">The Rescue</text>
</g>
<!-- cure&#45;&gt;rescue -->
<g id="edge32" class="edge">
<title>cure&#45;&gt;rescue</title>
<path fill="none" stroke="#000000" d="M376.0992,-223.822C381.3705,-213.6066 388.1164,-200.5334 394.0459,-189.0423"/>
<polygon fill="#000000" stroke="#000000" points="397.3091,-190.3509 398.7844,-179.8593 391.0885,-187.141 397.3091,-190.3509"/>
</g>
<!-- rescue&#45;&gt;lord -->
<g id="edge33" class="edge">
<title>rescue&#45;&gt;lord</title>
<path fill="none" stroke="#000000" d="M434.0382,-146.3771C450.8618,-136.2829 472.9971,-123.0017 491.5572,-111.8657"/>
<polygon fill="#000000" stroke="#000000" points="493.5683,-114.7408 500.3425,-106.5945 489.9668,-108.7383 493.5683,-114.7408"/>
</g>
<!-- partners -->
<g id="node28" class="node">
<title>partners</title>
<ellipse fill="#ff3030" stroke="#000000" cx="740" cy="-328.3675" rx="110.1176" ry="25.4118"/>
<text text-anchor="start" x="693.5" y="-332.1675" font-family="Times,serif" font-size="14.00" fill="#000000">Hunting Partners</text>
<text text-anchor="start" x="670" y="-318.1675" font-family="Times,serif" font-style="italic" font-size="14.00" fill="#000000">(</text>
<text text-anchor="start" x="675" y="-318.1675" font-family="Times,serif" font-weight="bold" font-style="italic" font-size="14.00" fill="#000000">Unlocks:</text>
<text text-anchor="start" x="726" y="-318.1675" font-family="Times,serif" font-size="14.00" fill="#000000"> Graug Hunter</text>
<text text-anchor="start" x="805" y="-318.1675" font-family="Times,serif" font-style="italic" font-size="14.00" fill="#000000">)</text>
</g>
<!-- game&#45;&gt;partners -->
<g id="edge27" class="edge">
<title>game&#45;&gt;partners</title>
<path fill="none" stroke="#000000" d="M728.714,-389.6729C730.1981,-381.6114 731.8648,-372.5578 733.4525,-363.9333"/>
<polygon fill="#000000" stroke="#000000" points="736.896,-364.5596 735.2644,-354.0911 730.0117,-363.2922 736.896,-364.5596"/>
</g>
<!-- graug -->
<g id="node29" class="node">
<title>graug</title>
<ellipse fill="#ff3030" stroke="#000000" cx="740" cy="-241.4558" rx="94.7833" ry="18"/>
<text text-anchor="middle" x="740" y="-237.7558" font-family="Times,serif" font-size="14.00" fill="#000000">The Great White Graug</text>
</g>
<!-- partners&#45;&gt;graug -->
<g id="edge28" class="edge">
<title>partners&#45;&gt;graug</title>
<path fill="none" stroke="#000000" d="M740,-302.7612C740,-292.3964 740,-280.3917 740,-269.7674"/>
<polygon fill="#000000" stroke="#000000" points="743.5001,-269.7151 740,-259.7151 736.5001,-269.7151 743.5001,-269.7151"/>
</g>
<!-- graug&#45;&gt;lord -->
<g id="edge34" class="edge">
<title>graug&#45;&gt;lord</title>
<path fill="none" stroke="#000000" d="M715.266,-223.7855C676.8443,-196.3365 602.8227,-143.4544 560.2545,-113.0431"/>
<polygon fill="#000000" stroke="#000000" points="562.0977,-110.0585 551.9262,-107.0933 558.0285,-115.7543 562.0977,-110.0585"/>
</g>
</g>
</svg>
