<?xml version="1.0" encoding="UTF-8" standalone="no"?>
<!DOCTYPE svg PUBLIC "-//W3C//DTD SVG 1.1//EN"
 "http://www.w3.org/Graphics/SVG/1.1/DTD/svg11.dtd">
<!-- Generated by graphviz version 2.40.1 (20161225.0304)
 -->
<!-- Title: mordor_verbose Pages: 1 -->
<svg width="1410pt" height="1194pt"
 viewBox="0.00 0.00 1409.80 1194.45" xmlns="http://www.w3.org/2000/svg" xmlns:xlink="http://www.w3.org/1999/xlink">
<g id="graph0" class="graph" transform="scale(1 1) rotate(0) translate(4 1190.4457)">
<title>mordor_verbose</title>
<polygon fill="#ffffff" stroke="transparent" points="-4,4 -4,-1190.4457 1405.7958,-1190.4457 1405.7958,4 -4,4"/>
<text text-anchor="start" x="452.8979" y="-1163.4457" font-family="Times,serif" font-style="italic" font-size="25.00" fill="#000000">Shadow of Mordor</text>
<text text-anchor="start" x="643.8979" y="-1163.4457" font-family="Times,serif" font-size="25.00" fill="#000000"> mission/unlock tree (verbose)</text>
<text text-anchor="start" x="491.8979" y="-1138.4457" font-family="Times,serif" baseline-shift="super" font-size="25.00" fill="#000000">https://github.com/apocalyptech/mordormissions/</text>
<text text-anchor="start" x="393.3979" y="-1113.4457" font-family="Times,serif" baseline-shift="super" font-size="25.00" fill="#000000">CC0 1.0 Universal &#45; https://creativecommons.org/publicdomain/zero/1.0/</text>
<g id="clust8" class="cluster">
<title>cluster_key</title>
<polygon fill="none" stroke="#000000" points="8,-510.9117 8,-1095.4457 238,-1095.4457 238,-510.9117 8,-510.9117"/>
<text text-anchor="middle" x="123" y="-1071.4457" font-family="Times,serif" font-size="25.00" fill="#000000">Key</text>
</g>
<!-- label_main -->
<g id="node1" class="node">
<title>label_main</title>
<ellipse fill="#bf3eff" stroke="#000000" cx="123" cy="-1033.4457" rx="49.2915" ry="18"/>
<text text-anchor="middle" x="123" y="-1029.7457" font-family="Times,serif" font-size="14.00" fill="#000000">Main/Boss</text>
</g>
<!-- label_hirgon -->
<g id="node8" class="node">
<title>label_hirgon</title>
<ellipse fill="#d2691e" stroke="#000000" cx="123" cy="-961.4457" rx="35.9954" ry="18"/>
<text text-anchor="middle" x="123" y="-957.7457" font-family="Times,serif" font-size="14.00" fill="#000000">Hirgon</text>
</g>
<!-- label_main&#45;&gt;label_hirgon -->
<!-- prologue -->
<g id="node2" class="node">
<title>prologue</title>
<ellipse fill="#bf3eff" stroke="#000000" cx="736" cy="-1033.4457" rx="109.6807" ry="18"/>
<text text-anchor="middle" x="736" y="-1029.7457" font-family="Times,serif" font-size="14.00" fill="#000000">Prologue / Entering Mordor</text>
</g>
<!-- slaver -->
<g id="node9" class="node">
<title>slaver</title>
<ellipse fill="#d2691e" stroke="#000000" cx="664" cy="-961.4457" rx="49.2915" ry="18"/>
<text text-anchor="middle" x="664" y="-957.7457" font-family="Times,serif" font-size="14.00" fill="#000000">The Slaver</text>
</g>
<!-- prologue&#45;&gt;slaver -->
<g id="edge7" class="edge">
<title>prologue&#45;&gt;slaver</title>
<path fill="none" stroke="#000000" d="M718.2022,-1015.648C709.1761,-1006.6218 698.0783,-995.524 688.2804,-985.7262"/>
<polygon fill="#000000" stroke="#000000" points="690.6432,-983.1392 681.0972,-978.543 685.6934,-988.0889 690.6432,-983.1392"/>
</g>
<!-- spirit -->
<g id="node17" class="node">
<title>spirit</title>
<ellipse fill="#6e8b3d" stroke="#000000" cx="875" cy="-881.9899" rx="85.5853" ry="18"/>
<text text-anchor="middle" x="875" y="-878.2899" font-family="Times,serif" font-size="14.00" fill="#000000">The Spirit of Mordor</text>
</g>
<!-- prologue&#45;&gt;spirit -->
<g id="edge8" class="edge">
<title>prologue&#45;&gt;spirit</title>
<path fill="none" stroke="#000000" d="M752.491,-1015.477C777.0483,-988.7191 823.3447,-938.2741 851.4579,-907.6417"/>
<polygon fill="#000000" stroke="#000000" points="854.3475,-909.6694 858.5305,-899.9352 849.1902,-904.9362 854.3475,-909.6694"/>
</g>
<!-- kill -->
<g id="node3" class="node">
<title>kill</title>
<ellipse fill="#bf3eff" stroke="#000000" cx="1120" cy="-698.267" rx="170.3255" ry="25.4118"/>
<text text-anchor="start" x="1020" y="-702.067" font-family="Times,serif" font-style="italic" font-size="14.00" fill="#000000">Warchief Hunt &#45; kill four Warchiefs.</text>
<text text-anchor="start" x="1007.5" y="-688.067" font-family="Times,serif" font-style="italic" font-size="14.00" fill="#000000">(&quot;</text>
<text text-anchor="start" x="1018.5" y="-688.067" font-family="Times,serif" font-size="14.00" fill="#000000">The Warchief</text>
<text text-anchor="start" x="1094.5" y="-688.067" font-family="Times,serif" font-style="italic" font-size="14.00" fill="#000000">&quot; mission counts as one.)</text>
</g>
<!-- monument -->
<g id="node11" class="node">
<title>monument</title>
<ellipse fill="#d2691e" stroke="#000000" cx="794" cy="-608.9117" rx="86.3847" ry="18"/>
<text text-anchor="middle" x="794" y="-605.2117" font-family="Times,serif" font-size="14.00" fill="#000000">The Dark Monument</text>
</g>
<!-- kill&#45;&gt;monument -->
<g id="edge20" class="edge">
<title>kill&#45;&gt;monument</title>
<path fill="none" stroke="#000000" d="M1038.1572,-675.8342C981.8112,-660.39 908.0942,-640.1845 856.4613,-626.0321"/>
<polygon fill="#000000" stroke="#000000" points="857.3335,-622.6421 846.7639,-623.3741 855.483,-629.3931 857.3335,-622.6421"/>
</g>
<!-- captain -->
<g id="node4" class="node">
<title>captain</title>
<ellipse fill="#bf3eff" stroke="#000000" cx="627" cy="-536.9117" rx="77.1866" ry="18"/>
<text text-anchor="middle" x="627" y="-533.2117" font-family="Times,serif" font-size="14.00" fill="#000000">The Black Captain</text>
</g>
<!-- messenger -->
<g id="node21" class="node">
<title>messenger</title>
<ellipse fill="#009acd" stroke="#000000" cx="627" cy="-464.9117" rx="65.7887" ry="18"/>
<text text-anchor="middle" x="627" y="-461.2117" font-family="Times,serif" font-size="14.00" fill="#000000">The Messenger</text>
</g>
<!-- captain&#45;&gt;messenger -->
<g id="edge24" class="edge">
<title>captain&#45;&gt;messenger</title>
<path fill="none" stroke="#000000" d="M627,-518.743C627,-511.0426 627,-501.886 627,-493.3283"/>
<polygon fill="#000000" stroke="#000000" points="630.5001,-493.3249 627,-483.325 623.5001,-493.325 630.5001,-493.3249"/>
</g>
<!-- brand -->
<g id="node5" class="node">
<title>brand</title>
<ellipse fill="#bf3eff" stroke="#000000" cx="450" cy="-241.4558" rx="98.9899" ry="25.4118"/>
<text text-anchor="start" x="393" y="-245.2558" font-family="Times,serif" font-style="italic" font-size="14.00" fill="#000000">Brand the Warchiefs</text>
<text text-anchor="start" x="388" y="-231.2558" font-family="Times,serif" font-style="italic" font-size="14.00" fill="#000000">(brand four warchiefs)</text>
</g>
<!-- lord -->
<g id="node6" class="node">
<title>lord</title>
<ellipse fill="#bf3eff" stroke="#000000" cx="450" cy="-90" rx="67.6881" ry="18"/>
<text text-anchor="middle" x="450" y="-86.3" font-family="Times,serif" font-size="14.00" fill="#000000">Lord of Mordor</text>
</g>
<!-- brand&#45;&gt;lord -->
<g id="edge32" class="edge">
<title>brand&#45;&gt;lord</title>
<path fill="none" stroke="#000000" d="M450,-215.7634C450,-188.7921 450,-146.4936 450,-118.5096"/>
<polygon fill="#000000" stroke="#000000" points="453.5001,-118.1914 450,-108.1915 446.5001,-118.1915 453.5001,-118.1914"/>
</g>
<!-- flames -->
<g id="node7" class="node">
<title>flames</title>
<ellipse fill="#bf3eff" stroke="#000000" cx="450" cy="-18" rx="75.2868" ry="18"/>
<text text-anchor="middle" x="450" y="-14.3" font-family="Times,serif" font-size="14.00" fill="#000000">Mordor in Flames</text>
</g>
<!-- lord&#45;&gt;flames -->
<g id="edge36" class="edge">
<title>lord&#45;&gt;flames</title>
<path fill="none" stroke="#000000" d="M450,-71.8314C450,-64.131 450,-54.9743 450,-46.4166"/>
<polygon fill="#000000" stroke="#000000" points="453.5001,-46.4132 450,-36.4133 446.5001,-46.4133 453.5001,-46.4132"/>
</g>
<!-- label_gollum -->
<g id="node12" class="node">
<title>label_gollum</title>
<ellipse fill="#7f7f7f" stroke="#000000" cx="123" cy="-881.9899" rx="38.1938" ry="18"/>
<text text-anchor="middle" x="123" y="-878.2899" font-family="Times,serif" font-size="14.00" fill="#000000">Gollum</text>
</g>
<!-- label_hirgon&#45;&gt;label_gollum -->
<!-- interested -->
<g id="node13" class="node">
<title>interested</title>
<ellipse fill="#7f7f7f" stroke="#000000" cx="460" cy="-881.9899" rx="79.0865" ry="18"/>
<text text-anchor="middle" x="460" y="-878.2899" font-family="Times,serif" font-size="14.00" fill="#000000">An Interested Party</text>
</g>
<!-- slaver&#45;&gt;interested -->
<g id="edge9" class="edge">
<title>slaver&#45;&gt;interested</title>
<path fill="none" stroke="#000000" d="M629.855,-948.1466C597.0569,-935.3721 547.1282,-915.9254 509.8798,-901.4176"/>
<polygon fill="#000000" stroke="#000000" points="510.8076,-898.0229 500.2192,-897.6548 508.267,-904.5456 510.8076,-898.0229"/>
</g>
<!-- outcast_rescue1 -->
<g id="node37" class="node">
<title>outcast_rescue1</title>
<ellipse fill="#00ff00" stroke="#000000" cx="664" cy="-881.9899" rx="106.5467" ry="25.4118"/>
<text text-anchor="start" x="596.5" y="-885.7899" font-family="Times,serif" font-style="italic" font-size="14.00" fill="#000000">Outcast Rescue missions</text>
<text text-anchor="start" x="639" y="-871.7899" font-family="Times,serif" font-style="italic" font-size="14.00" fill="#000000">(batch 1)</text>
</g>
<!-- slaver&#45;&gt;outcast_rescue1 -->
<g id="edge44" class="edge">
<title>slaver&#45;&gt;outcast_rescue1</title>
<path fill="none" stroke="#000000" d="M664,-943.416C664,-935.781 664,-926.6038 664,-917.6987"/>
<polygon fill="#000000" stroke="#000000" points="667.5001,-917.4786 664,-907.4786 660.5001,-917.4786 667.5001,-917.4786"/>
</g>
<!-- outcasts -->
<g id="node10" class="node">
<title>outcasts</title>
<ellipse fill="#d2691e" stroke="#000000" cx="652" cy="-795.0782" rx="57.3905" ry="18"/>
<text text-anchor="middle" x="652" y="-791.3782" font-family="Times,serif" font-size="14.00" fill="#000000">The Outcasts</text>
</g>
<!-- outcasts&#45;&gt;monument -->
<g id="edge22" class="edge">
<title>outcasts&#45;&gt;monument</title>
<path fill="none" stroke="#000000" d="M619.8659,-780.0074C601.9337,-769.7023 581.2054,-754.1757 571,-733.6224 557.0235,-705.4743 551.5679,-687.6109 571,-662.9117 588.1006,-641.1759 652.259,-627.1322 707.3947,-618.831"/>
<polygon fill="#000000" stroke="#000000" points="708.1809,-622.2535 717.5713,-617.3472 707.1709,-615.3267 708.1809,-622.2535"/>
</g>
<!-- poison_outcast2 -->
<g id="node32" class="node">
<title>poison_outcast2</title>
<ellipse fill="#00ff00" stroke="#000000" cx="687" cy="-698.267" rx="106.5467" ry="35.2113"/>
<text text-anchor="start" x="625.5" y="-709.067" font-family="Times,serif" font-size="14.00" fill="#000000">Poison </text>
<text text-anchor="start" x="666.5" y="-709.067" font-family="Times,serif" font-style="italic" font-size="14.00" fill="#000000">(grog barrels),</text>
<text text-anchor="start" x="619.5" y="-695.067" font-family="Times,serif" font-style="italic" font-size="14.00" fill="#000000">Outcast Rescue missions</text>
<text text-anchor="start" x="662" y="-681.067" font-family="Times,serif" font-style="italic" font-size="14.00" fill="#000000">(batch 2)</text>
</g>
<!-- outcasts&#45;&gt;poison_outcast2 -->
<g id="edge38" class="edge">
<title>outcasts&#45;&gt;poison_outcast2</title>
<path fill="none" stroke="#000000" d="M658.5832,-776.8688C662.052,-767.2741 666.4735,-755.044 670.7898,-743.1049"/>
<polygon fill="#000000" stroke="#000000" points="674.1002,-744.2426 674.2087,-733.6483 667.5172,-741.8626 674.1002,-744.2426"/>
</g>
<!-- monument&#45;&gt;captain -->
<g id="edge23" class="edge">
<title>monument&#45;&gt;captain</title>
<path fill="none" stroke="#000000" d="M756.1051,-592.5738C731.5067,-581.9685 699.2913,-568.0792 673.1952,-556.8282"/>
<polygon fill="#000000" stroke="#000000" points="674.4517,-553.5585 663.8831,-552.8134 671.6803,-559.9865 674.4517,-553.5585"/>
</g>
<!-- label_ratbag -->
<g id="node16" class="node">
<title>label_ratbag</title>
<ellipse fill="#6e8b3d" stroke="#000000" cx="123" cy="-795.0782" rx="35.9954" ry="18"/>
<text text-anchor="middle" x="123" y="-791.3782" font-family="Times,serif" font-size="14.00" fill="#000000">Ratbag</text>
</g>
<!-- label_gollum&#45;&gt;label_ratbag -->
<!-- interested&#45;&gt;outcasts -->
<g id="edge14" class="edge">
<title>interested&#45;&gt;outcasts</title>
<path fill="none" stroke="#000000" d="M495.6638,-865.8462C527.9793,-851.218 575.6345,-829.6462 609.8279,-814.1681"/>
<polygon fill="#000000" stroke="#000000" points="611.4245,-817.2873 619.0912,-809.9749 608.5378,-810.9102 611.4245,-817.2873"/>
</g>
<!-- shattered -->
<g id="node14" class="node">
<title>shattered</title>
<ellipse fill="#7f7f7f" stroke="#000000" cx="460" cy="-795.0782" rx="83.3857" ry="18"/>
<text text-anchor="middle" x="460" y="-791.3782" font-family="Times,serif" font-size="14.00" fill="#000000">Shattered Memories</text>
</g>
<!-- interested&#45;&gt;shattered -->
<g id="edge13" class="edge">
<title>interested&#45;&gt;shattered</title>
<path fill="none" stroke="#000000" d="M460,-863.9817C460,-852.2904 460,-836.8047 460,-823.4758"/>
<polygon fill="#000000" stroke="#000000" points="463.5001,-823.3623 460,-813.3623 456.5001,-823.3624 463.5001,-823.3623"/>
</g>
<!-- climbing -->
<g id="node18" class="node">
<title>climbing</title>
<ellipse fill="#6e8b3d" stroke="#000000" cx="873" cy="-795.0782" rx="81.7856" ry="18"/>
<text text-anchor="middle" x="873" y="-791.3782" font-family="Times,serif" font-size="14.00" fill="#000000">Climbing the Ranks</text>
</g>
<!-- interested&#45;&gt;climbing -->
<g id="edge15" class="edge">
<title>interested&#45;&gt;climbing</title>
<path fill="none" stroke="#000000" d="M507.2786,-867.422C520.3994,-863.6231 534.6959,-859.7086 548,-856.5341 632.4736,-836.3772 730.5656,-818.588 796.7036,-807.4037"/>
<polygon fill="#000000" stroke="#000000" points="797.3494,-810.8443 806.6304,-805.7341 796.1883,-803.9413 797.3494,-810.8443"/>
</g>
<!-- truth -->
<g id="node15" class="node">
<title>truth</title>
<ellipse fill="#7f7f7f" stroke="#000000" cx="460" cy="-698.267" rx="63.8893" ry="18"/>
<text text-anchor="middle" x="460" y="-694.567" font-family="Times,serif" font-size="14.00" fill="#000000">The One Truth</text>
</g>
<!-- shattered&#45;&gt;truth -->
<g id="edge18" class="edge">
<title>shattered&#45;&gt;truth</title>
<path fill="none" stroke="#000000" d="M460,-776.8688C460,-762.6705 460,-742.7014 460,-726.4442"/>
<polygon fill="#000000" stroke="#000000" points="463.5001,-726.3948 460,-716.3948 456.5001,-726.3949 463.5001,-726.3948"/>
</g>
<!-- wraith_flash_ghuls -->
<g id="node31" class="node">
<title>wraith_flash_ghuls</title>
<ellipse fill="#00ff00" stroke="#000000" cx="313" cy="-698.267" rx="65.1077" ry="25.4118"/>
<text text-anchor="start" x="275" y="-702.067" font-family="Times,serif" font-size="14.00" fill="#000000">Wraith Flash,</text>
<text text-anchor="start" x="296.5" y="-688.067" font-family="Times,serif" font-style="italic" font-size="14.00" fill="#000000">Ghuls</text>
</g>
<!-- shattered&#45;&gt;wraith_flash_ghuls -->
<g id="edge37" class="edge">
<title>shattered&#45;&gt;wraith_flash_ghuls</title>
<path fill="none" stroke="#000000" d="M433.7193,-777.7703C411.7575,-763.3067 380.0416,-742.4193 354.6294,-725.6833"/>
<polygon fill="#000000" stroke="#000000" points="356.5528,-722.7592 346.2762,-720.1821 352.7027,-728.6053 356.5528,-722.7592"/>
</g>
<!-- truth&#45;&gt;captain -->
<g id="edge21" class="edge">
<title>truth&#45;&gt;captain</title>
<path fill="none" stroke="#000000" d="M458.0839,-680.0453C456.6619,-656.6706 457.8322,-616.1424 479,-590.9117 496.9263,-569.5447 524.0541,-556.6319 550.2087,-548.8284"/>
<polygon fill="#000000" stroke="#000000" points="551.4555,-552.1153 560.1639,-546.0809 549.5931,-545.3675 551.4555,-552.1153"/>
</g>
<!-- shadow_strike -->
<g id="node33" class="node">
<title>shadow_strike</title>
<ellipse fill="#00ff00" stroke="#000000" cx="550" cy="-608.9117" rx="62.2891" ry="18"/>
<text text-anchor="middle" x="550" y="-605.2117" font-family="Times,serif" font-size="14.00" fill="#000000">Shadow Strike</text>
</g>
<!-- truth&#45;&gt;shadow_strike -->
<g id="edge39" class="edge">
<title>truth&#45;&gt;shadow_strike</title>
<path fill="none" stroke="#000000" d="M477.7811,-680.6133C491.3045,-667.1868 510.0812,-648.5445 525.0991,-633.6343"/>
<polygon fill="#000000" stroke="#000000" points="527.9316,-635.7541 532.5621,-626.2247 522.9996,-630.7866 527.9316,-635.7541"/>
</g>
<!-- label_queen -->
<g id="node20" class="node">
<title>label_queen</title>
<ellipse fill="#009acd" stroke="#000000" cx="123" cy="-698.267" rx="106.6812" ry="18"/>
<text text-anchor="middle" x="123" y="-694.567" font-family="Times,serif" font-size="14.00" fill="#000000">Queen Marwen + Lithariel</text>
</g>
<!-- label_ratbag&#45;&gt;label_queen -->
<!-- spirit&#45;&gt;outcasts -->
<g id="edge12" class="edge">
<title>spirit&#45;&gt;outcasts</title>
<path fill="none" stroke="#000000" d="M834.0984,-866.049C795.5329,-851.0185 737.8255,-828.5277 697.7493,-812.9085"/>
<polygon fill="#000000" stroke="#000000" points="698.8047,-809.5634 688.2163,-809.1931 696.2627,-816.0856 698.8047,-809.5634"/>
</g>
<!-- spirit&#45;&gt;shattered -->
<g id="edge11" class="edge">
<title>spirit&#45;&gt;shattered</title>
<path fill="none" stroke="#000000" d="M823.9072,-867.5118C809.7425,-863.7132 794.322,-859.7765 780,-856.5341 694.4703,-837.1705 672.0926,-837.2176 586,-820.5341 567.9761,-817.0413 548.5247,-813.1646 530.4244,-809.5114"/>
<polygon fill="#000000" stroke="#000000" points="531.0209,-806.0612 520.5254,-807.5087 529.6328,-812.9222 531.0209,-806.0612"/>
</g>
<!-- spirit&#45;&gt;climbing -->
<g id="edge10" class="edge">
<title>spirit&#45;&gt;climbing</title>
<path fill="none" stroke="#000000" d="M874.5856,-863.9817C874.3166,-852.2904 873.9602,-836.8047 873.6535,-823.4758"/>
<polygon fill="#000000" stroke="#000000" points="877.15,-823.2791 873.4208,-813.3623 870.1518,-823.4402 877.15,-823.2791"/>
</g>
<!-- power_struggles -->
<g id="node41" class="node">
<title>power_struggles</title>
<ellipse fill="#00ff00" stroke="#000000" cx="1054" cy="-795.0782" rx="81.135" ry="25.4118"/>
<text text-anchor="start" x="1007" y="-798.8782" font-family="Times,serif" font-style="italic" font-size="14.00" fill="#000000">Power Struggles,</text>
<text text-anchor="start" x="1004.5" y="-784.8782" font-family="Times,serif" font-style="italic" font-size="14.00" fill="#000000">Vendetta missions</text>
</g>
<!-- spirit&#45;&gt;power_struggles -->
<g id="edge43" class="edge">
<title>spirit&#45;&gt;power_struggles</title>
<path fill="none" stroke="#000000" d="M909.0899,-865.4379C934.9014,-852.9054 970.8498,-835.451 1000.4836,-821.0626"/>
<polygon fill="#000000" stroke="#000000" points="1002.3953,-824.0252 1009.8623,-816.5089 999.3378,-817.7282 1002.3953,-824.0252"/>
</g>
<!-- climbing&#45;&gt;kill -->
<g id="edge17" class="edge">
<title>climbing&#45;&gt;kill</title>
<path fill="none" stroke="#000000" d="M913.2345,-779.3084C950.0402,-764.8824 1005.3143,-743.2179 1049.4548,-725.9171"/>
<polygon fill="#000000" stroke="#000000" points="1050.9466,-729.0917 1058.9797,-722.1838 1048.3921,-722.5744 1050.9466,-729.0917"/>
</g>
<!-- warchief -->
<g id="node19" class="node">
<title>warchief</title>
<ellipse fill="#6e8b3d" stroke="#000000" cx="872" cy="-698.267" rx="59.5901" ry="18"/>
<text text-anchor="middle" x="872" y="-694.567" font-family="Times,serif" font-size="14.00" fill="#000000">The Warchief</text>
</g>
<!-- climbing&#45;&gt;warchief -->
<g id="edge16" class="edge">
<title>climbing&#45;&gt;warchief</title>
<path fill="none" stroke="#000000" d="M872.8119,-776.8688C872.6652,-762.6705 872.459,-742.7014 872.2911,-726.4442"/>
<polygon fill="#000000" stroke="#000000" points="875.7904,-726.3581 872.1872,-716.3948 868.7908,-726.4305 875.7904,-726.3581"/>
</g>
<!-- warchiefs_avail -->
<g id="node38" class="node">
<title>warchiefs_avail</title>
<ellipse fill="#00ff00" stroke="#000000" cx="1355" cy="-698.267" rx="46.5926" ry="18"/>
<text text-anchor="start" x="1327" y="-695.567" font-family="Times,serif" font-style="italic" font-size="14.00" fill="#000000">Warchiefs</text>
</g>
<!-- climbing&#45;&gt;warchiefs_avail -->
<g id="edge45" class="edge">
<title>climbing&#45;&gt;warchiefs_avail</title>
<path fill="none" stroke="#000000" d="M920.3467,-780.2318C934.2946,-776.2949 949.662,-772.3785 964,-769.6224 1111.054,-741.3551 1157.5832,-782.8685 1299,-733.6224 1308.2498,-730.4013 1317.5446,-725.4089 1325.8302,-720.1809"/>
<polygon fill="#000000" stroke="#000000" points="1327.9934,-722.9453 1334.3749,-714.488 1324.1122,-717.1198 1327.9934,-722.9453"/>
</g>
<!-- warchief&#45;&gt;monument -->
<g id="edge19" class="edge">
<title>warchief&#45;&gt;monument</title>
<path fill="none" stroke="#000000" d="M856.5897,-680.6133C845.1268,-667.4816 829.3088,-649.3607 816.4429,-634.6218"/>
<polygon fill="#000000" stroke="#000000" points="818.8582,-632.0665 809.6453,-626.8346 813.5847,-636.6698 818.8582,-632.0665"/>
</g>
<!-- label_torvin -->
<g id="node26" class="node">
<title>label_torvin</title>
<ellipse fill="#ff3030" stroke="#000000" cx="123" cy="-608.9117" rx="34.394" ry="18"/>
<text text-anchor="middle" x="123" y="-605.2117" font-family="Times,serif" font-size="14.00" fill="#000000">Torvin</text>
</g>
<!-- label_queen&#45;&gt;label_torvin -->
<!-- queen -->
<g id="node22" class="node">
<title>queen</title>
<ellipse fill="#009acd" stroke="#000000" cx="456" cy="-392.9117" rx="79.0865" ry="18"/>
<text text-anchor="middle" x="456" y="-389.2117" font-family="Times,serif" font-size="14.00" fill="#000000">Queen of the Shore</text>
</g>
<!-- messenger&#45;&gt;queen -->
<g id="edge25" class="edge">
<title>messenger&#45;&gt;queen</title>
<path fill="none" stroke="#000000" d="M591.1528,-449.8181C565.6595,-439.0841 531.1534,-424.5552 503.3887,-412.8648"/>
<polygon fill="#000000" stroke="#000000" points="504.4496,-409.514 493.875,-408.8591 501.7332,-415.9654 504.4496,-409.514"/>
</g>
<!-- game -->
<g id="node27" class="node">
<title>game</title>
<ellipse fill="#ff3030" stroke="#000000" cx="627" cy="-392.9117" rx="47.3916" ry="18"/>
<text text-anchor="middle" x="627" y="-389.2117" font-family="Times,serif" font-size="14.00" fill="#000000">Big Game</text>
</g>
<!-- messenger&#45;&gt;game -->
<g id="edge26" class="edge">
<title>messenger&#45;&gt;game</title>
<path fill="none" stroke="#000000" d="M627,-446.743C627,-439.0426 627,-429.886 627,-421.3283"/>
<polygon fill="#000000" stroke="#000000" points="630.5001,-421.3249 627,-411.325 623.5001,-421.325 630.5001,-421.3249"/>
</g>
<!-- nurn -->
<g id="node39" class="node">
<title>nurn</title>
<ellipse fill="#00ff00" stroke="#000000" cx="721" cy="-392.9117" rx="28.6953" ry="18"/>
<text text-anchor="start" x="707" y="-390.2117" font-family="Times,serif" font-style="italic" font-size="14.00" fill="#000000">Nurn</text>
</g>
<!-- messenger&#45;&gt;nurn -->
<g id="edge46" class="edge">
<title>messenger&#45;&gt;nurn</title>
<path fill="none" stroke="#000000" d="M649.2767,-447.8487C662.8919,-437.42 680.3767,-424.0274 694.6739,-413.0764"/>
<polygon fill="#000000" stroke="#000000" points="696.8597,-415.8109 702.6702,-406.9516 692.6031,-410.2538 696.8597,-415.8109"/>
</g>
<!-- power -->
<g id="node23" class="node">
<title>power</title>
<ellipse fill="#009acd" stroke="#000000" cx="281" cy="-320.9117" rx="99.3824" ry="18"/>
<text text-anchor="middle" x="281" y="-317.2117" font-family="Times,serif" font-size="14.00" fill="#000000">The Power of the Wraith</text>
</g>
<!-- queen&#45;&gt;power -->
<g id="edge27" class="edge">
<title>queen&#45;&gt;power</title>
<path fill="none" stroke="#000000" d="M417.5955,-377.111C392.035,-366.5946 358.2102,-352.6782 330.6153,-341.3248"/>
<polygon fill="#000000" stroke="#000000" points="331.7178,-337.9939 321.1382,-337.4257 329.0544,-344.4674 331.7178,-337.9939"/>
</g>
<!-- skill_brand -->
<g id="node36" class="node">
<title>skill_brand</title>
<ellipse fill="#00ff00" stroke="#000000" cx="456" cy="-320.9117" rx="32.4942" ry="18"/>
<text text-anchor="middle" x="456" y="-317.2117" font-family="Times,serif" font-size="14.00" fill="#000000">Brand</text>
</g>
<!-- queen&#45;&gt;skill_brand -->
<g id="edge42" class="edge">
<title>queen&#45;&gt;skill_brand</title>
<path fill="none" stroke="#000000" d="M456,-374.743C456,-367.0426 456,-357.886 456,-349.3283"/>
<polygon fill="#000000" stroke="#000000" points="459.5001,-349.3249 456,-339.325 452.5001,-349.325 459.5001,-349.3249"/>
</g>
<!-- power&#45;&gt;brand -->
<g id="edge31" class="edge">
<title>power&#45;&gt;brand</title>
<path fill="none" stroke="#000000" d="M316.8406,-304.0611C339.0181,-293.6343 367.9793,-280.0181 393.2265,-268.1481"/>
<polygon fill="#000000" stroke="#000000" points="394.7801,-271.2853 402.3406,-263.8631 391.8017,-264.9505 394.7801,-271.2853"/>
</g>
<!-- cure -->
<g id="node24" class="node">
<title>cure</title>
<ellipse fill="#009acd" stroke="#000000" cx="64" cy="-241.4558" rx="44.393" ry="18"/>
<text text-anchor="middle" x="64" y="-237.7558" font-family="Times,serif" font-size="14.00" fill="#000000">The Cure</text>
</g>
<!-- power&#45;&gt;cure -->
<g id="edge30" class="edge">
<title>power&#45;&gt;cure</title>
<path fill="none" stroke="#000000" d="M229.0384,-305.4558C196.7353,-295.4159 154.5405,-281.5153 118,-266.9117 112.5126,-264.7186 106.791,-262.2398 101.2116,-259.7112"/>
<polygon fill="#000000" stroke="#000000" points="102.5672,-256.4818 92.0226,-255.4504 99.6225,-262.8323 102.5672,-256.4818"/>
</g>
<!-- command -->
<g id="node40" class="node">
<title>command</title>
<ellipse fill="#00ff00" stroke="#000000" cx="230" cy="-241.4558" rx="103.1819" ry="18"/>
<text text-anchor="start" x="158.5" y="-238.7558" font-family="Times,serif" font-style="italic" font-size="14.00" fill="#000000">Command Branded Uruks</text>
</g>
<!-- power&#45;&gt;command -->
<g id="edge47" class="edge">
<title>power&#45;&gt;command</title>
<path fill="none" stroke="#000000" d="M269.4273,-302.8819C262.8414,-292.6214 254.4677,-279.5754 247.1327,-268.1478"/>
<polygon fill="#000000" stroke="#000000" points="249.8741,-265.9392 241.5269,-259.4143 243.9832,-269.7204 249.8741,-265.9392"/>
</g>
<!-- rescue -->
<g id="node25" class="node">
<title>rescue</title>
<ellipse fill="#009acd" stroke="#000000" cx="217" cy="-162" rx="51.9908" ry="18"/>
<text text-anchor="middle" x="217" y="-158.3" font-family="Times,serif" font-size="14.00" fill="#000000">The Rescue</text>
</g>
<!-- cure&#45;&gt;rescue -->
<g id="edge33" class="edge">
<title>cure&#45;&gt;rescue</title>
<path fill="none" stroke="#000000" d="M91.3533,-227.2507C115.7269,-214.5931 151.6431,-195.9411 178.8401,-181.8172"/>
<polygon fill="#000000" stroke="#000000" points="180.8015,-184.7424 188.0631,-177.0275 177.5754,-178.5302 180.8015,-184.7424"/>
</g>
<!-- rescue&#45;&gt;lord -->
<g id="edge34" class="edge">
<title>rescue&#45;&gt;lord</title>
<path fill="none" stroke="#000000" d="M255.999,-149.9488C294.3388,-138.1013 353.1737,-119.9206 396.0007,-106.6865"/>
<polygon fill="#000000" stroke="#000000" points="397.1792,-109.9857 405.7001,-103.6892 395.1125,-103.2977 397.1792,-109.9857"/>
</g>
<!-- label_unlocks -->
<g id="node30" class="node">
<title>label_unlocks</title>
<ellipse fill="#00ff00" stroke="#000000" cx="123" cy="-536.9117" rx="40.0939" ry="18"/>
<text text-anchor="middle" x="123" y="-533.2117" font-family="Times,serif" font-size="14.00" fill="#000000">Unlocks</text>
</g>
<!-- label_torvin&#45;&gt;label_unlocks -->
<!-- partners -->
<g id="node28" class="node">
<title>partners</title>
<ellipse fill="#ff3030" stroke="#000000" cx="627" cy="-320.9117" rx="70.6878" ry="18"/>
<text text-anchor="middle" x="627" y="-317.2117" font-family="Times,serif" font-size="14.00" fill="#000000">Hunting Partners</text>
</g>
<!-- game&#45;&gt;partners -->
<g id="edge28" class="edge">
<title>game&#45;&gt;partners</title>
<path fill="none" stroke="#000000" d="M627,-374.743C627,-367.0426 627,-357.886 627,-349.3283"/>
<polygon fill="#000000" stroke="#000000" points="630.5001,-349.3249 627,-339.325 623.5001,-349.325 630.5001,-349.3249"/>
</g>
<!-- caragor_hunter -->
<g id="node34" class="node">
<title>caragor_hunter</title>
<ellipse fill="#00ff00" stroke="#000000" cx="781" cy="-320.9117" rx="65.7887" ry="18"/>
<text text-anchor="middle" x="781" y="-317.2117" font-family="Times,serif" font-size="14.00" fill="#000000">Caragor Hunter</text>
</g>
<!-- game&#45;&gt;caragor_hunter -->
<g id="edge40" class="edge">
<title>game&#45;&gt;caragor_hunter</title>
<path fill="none" stroke="#000000" d="M657.0583,-378.8584C680.2121,-368.0333 712.5231,-352.9269 738.3494,-340.8522"/>
<polygon fill="#000000" stroke="#000000" points="739.9656,-343.9603 747.542,-336.5544 737.0008,-337.6191 739.9656,-343.9603"/>
</g>
<!-- graug -->
<g id="node29" class="node">
<title>graug</title>
<ellipse fill="#ff3030" stroke="#000000" cx="800" cy="-241.4558" rx="94.7833" ry="18"/>
<text text-anchor="middle" x="800" y="-237.7558" font-family="Times,serif" font-size="14.00" fill="#000000">The Great White Graug</text>
</g>
<!-- partners&#45;&gt;graug -->
<g id="edge29" class="edge">
<title>partners&#45;&gt;graug</title>
<path fill="none" stroke="#000000" d="M661.5933,-305.0236C688.286,-292.7641 725.4434,-275.6984 754.538,-262.3357"/>
<polygon fill="#000000" stroke="#000000" points="756.0509,-265.4924 763.6775,-258.1381 753.1293,-259.1313 756.0509,-265.4924"/>
</g>
<!-- graug_hunter -->
<g id="node35" class="node">
<title>graug_hunter</title>
<ellipse fill="#00ff00" stroke="#000000" cx="627" cy="-241.4558" rx="59.5901" ry="18"/>
<text text-anchor="middle" x="627" y="-237.7558" font-family="Times,serif" font-size="14.00" fill="#000000">Graug Hunter</text>
</g>
<!-- partners&#45;&gt;graug_hunter -->
<g id="edge41" class="edge">
<title>partners&#45;&gt;graug_hunter</title>
<path fill="none" stroke="#000000" d="M627,-302.8819C627,-293.0972 627,-280.7792 627,-269.7474"/>
<polygon fill="#000000" stroke="#000000" points="630.5001,-269.6893 627,-259.6893 623.5001,-269.6893 630.5001,-269.6893"/>
</g>
<!-- graug&#45;&gt;lord -->
<g id="edge35" class="edge">
<title>graug&#45;&gt;lord</title>
<path fill="none" stroke="#000000" d="M761.8776,-224.9591C696.7304,-196.7679 564.2989,-139.4607 494.828,-109.3985"/>
<polygon fill="#000000" stroke="#000000" points="496.0244,-106.1026 485.4568,-105.3433 493.2444,-112.5269 496.0244,-106.1026"/>
</g>
</g>
</svg>
